<?xml version="1.0" encoding="UTF-8"?>
<svg width="448px" height="448px" viewBox="0 0 448 448" version="1.1" xmlns="http://www.w3.org/2000/svg" xmlns:xlink="http://www.w3.org/1999/xlink">
    <title>forumbee-brands</title>
    <g id="Page-1" stroke="none" stroke-width="1" fill="none" fill-rule="evenodd">
        <g id="forumbee-brands" fill="#CCBD17" fill-rule="nonzero">
            <path d="M5.8,274.7 C2,257.7 0,240.5 0,223.3 C0,100 99.8,0 223.1,0 C239.7,0 256.4,2 272.4,5.5 C149,52.5 51.9,151 5.8,274.7 Z M398.7,85.5 C385,68 369,52.8 350.9,40.2 C201.3,84.5 84.6,202.3 41.2,352.2 C53.7,370.3 69.2,387.8 86.4,401.2 C129.5,249.9 247.6,129.5 398.7,85.5 Z M414.5,338.2 C429.7,313.1 439.9,284.5 444,255.4 C364.6,298.3 299,366 256.4,445.7 C286.4,441.3 315.3,430.4 341,414.4 C376,427.5 411.9,438.7 448,448 C438.7,411.5 427.6,373.5 414.5,338.2 Z M444.2,192.7 C441.6,173.2 436.3,154 428.4,135.9 C290.5,181.7 182,292.5 137.1,431 C155.2,438.6 174.1,443.5 193.7,446.2 C240,332.1 330.5,239.4 444.2,192.7 Z" id="Shape"></path>
        </g>
    </g>
</svg>
