<?xml version="1.0" encoding="UTF-8"?>
<svg width="53px" height="100px" viewBox="0 0 53 100" version="1.1" xmlns="http://www.w3.org/2000/svg" xmlns:xlink="http://www.w3.org/1999/xlink">
    <title>fa-facebook</title>
    <g id="Page-1" stroke="none" stroke-width="1" fill="none" fill-rule="evenodd">
        <g id="fa-facebook" fill="#FBFF00">
            <path d="M15.387931,54.3390805 L15.387931,99.8132184 L33.7691571,99.8132184 L33.7691571,54.3390805 L49.0373563,54.3390805 L51.3984674,36.6044061 L33.7691571,36.6044061 L33.7691571,25.2059387 C33.7691571,22.4137931 34.4157088,20.26341 35.598659,18.7595785 C36.7816092,17.3611111 39.0373563,16.6091954 42.4760536,16.6091954 L51.8295019,16.6091954 L51.8295019,0.804597701 C48.6063218,0.268199234 44.0900383,0.0526819923 38.1800766,0.0526819923 C31.2978927,0.0526819923 25.7088123,2.09291188 21.6235632,6.18295019 C17.4329502,10.26341 15.387931,16.0680077 15.387931,23.48659 L15.387931,36.6044061 L0.124521073,36.6044061 L0.124521073,54.3390805 L15.387931,54.3390805" id="Fill-22"></path>
        </g>
    </g>
</svg>
