<svg height="78" viewBox="0 0 98 78" width="98" xmlns="http://www.w3.org/2000/svg"><path d="m1.34761905 40.8761905 3.63333333 4.3809524c.32380952.4285714.74761905.6380952 1.28571429.6380952.42380952.1095238.96190476-.1047619 1.38571428-.4238095l41.36666665-34.4190476 41.2571429 34.4190476c.3190476.3190476.747619.4238095 1.1761905.4238095h.2142857c.5333333 0 .9619047-.2095238 1.2809523-.6380952l3.6333334-4.3809524c.3190476-.4285715.5333333-.8571429.4285714-1.3904762 0-.5333333-.2142857-.9619048-.6428571-1.2857143l-13.0380953-10.9v-24.26190476c0-.64285714-.2142857-1.07142857-.5333333-1.39047619-.3238095-.42857143-.8571429-.53333334-1.3904762-.53333334h-11.4380952c-.5333334 0-1.0666667.10476191-1.3904762.53333334-.3190476.31904762-.5333334.74761905-.5333334 1.39047619v11.54285716l-14.5333333-12.0761905c-1.2857143-1.07142857-2.7809524-1.6047619-4.4904762-1.6047619-1.8190476 0-3.3142857.53333333-4.5952381 1.6047619l-42.86190474 35.6952381c-.42857143.3238095-.64285714.752381-.64285714 1.2857143-.10476191.5333333.10952381.9619047.42857143 1.3904762zm14.42857145 35.3761905c.747619.747619 1.6047619 1.1761904 2.6714285 1.1761904h22.8761905v-22.8714285h15.2809524v22.8714285h22.8761905c1.0666666 0 1.9238095-.4285714 2.6714286-1.1761904.747619-.7476191 1.1761904-1.604762 1.1761904-2.6714286v-28.6476191c0-.1047619 0-.2095238-.1095238-.3190476l-34.2-28.2190476-34.3095238 28.2190476s-.1095238.1095238-.1095238.2142857v.1047619 28.6476191c0 1.0666666.4285714 1.9238095 1.1761905 2.6714286z" fill="#fff" fill-rule="evenodd"/></svg>