<?xml version="1.0" encoding="UTF-8"?>
<svg width="100px" height="96px" viewBox="0 0 100 96" version="1.1" xmlns="http://www.w3.org/2000/svg" xmlns:xlink="http://www.w3.org/1999/xlink">
    <title>fa-instagram</title>
    <g id="Page-1" stroke="none" stroke-width="1" fill="none" fill-rule="evenodd">
        <g id="fa-instagram" fill="#FBFF00">
            <path d="M7.56190476,88.7380952 C9.91428571,90.9857143 12.6952381,92.1619048 15.9,92.1619048 L83.9857143,92.1619048 C87.1904762,92.1619048 89.9714286,90.9857143 92.3238095,88.7380952 C94.5666667,86.3904762 95.7428571,83.6095238 95.7428571,80.4047619 L95.7428571,12.3190476 C95.7428571,9.10952381 94.5666667,6.33333333 92.3238095,3.98095238 C89.9714286,1.73809524 87.1904762,0.561904762 83.9857143,0.561904762 L15.9,0.561904762 C12.6952381,0.561904762 9.91428571,1.73809524 7.56190476,3.98095238 C5.31904762,6.33333333 4.14285714,9.10952381 4.14285714,12.3190476 L4.14285714,80.4047619 C4.14285714,83.6095238 5.31904762,86.3904762 7.56190476,88.7380952 L7.56190476,88.7380952 Z M14.2952381,39.3571429 L22.7380952,39.3571429 C21.9904762,41.8190476 21.5666667,44.4904762 21.5666667,47.1619048 C21.5666667,54.752381 24.3428571,61.2714286 29.9,66.7238095 C35.4619048,72.0666667 42.1952381,74.7380952 49.9952381,74.7380952 C55.2333333,74.7380952 59.9380952,73.4571429 64.3190476,70.9952381 C68.7,68.5380952 72.1190476,65.2238095 74.6857143,61.0571429 C77.252381,56.7809524 78.5333333,52.1857143 78.5333333,47.1619048 C78.5333333,44.4904762 78.1047619,41.8190476 77.3571429,39.3571429 L85.3761905,39.3571429 L85.3761905,77.9428571 C85.3761905,79.0142857 85.052381,79.8666667 84.3047619,80.5095238 C83.5571429,81.2571429 82.7047619,81.5761905 81.7428571,81.5761905 L17.9285714,81.5761905 C16.8619048,81.5761905 16.0047619,81.2571429 15.3666667,80.5095238 C14.6190476,79.8666667 14.2952381,79.0142857 14.2952381,77.9428571 L14.2952381,39.3571429 L14.2952381,39.3571429 Z M49.9952381,28.352381 C55.1285714,28.352381 59.5095238,30.0619048 63.0380952,33.5857143 C66.6714286,37.1142857 68.4857143,41.2809524 68.4857143,46.2 C68.4857143,51.1142857 66.6714286,55.3904762 63.0380952,58.8142857 C59.5095238,62.3380952 55.1285714,64.047619 49.9952381,64.047619 C44.9714286,64.047619 40.5904762,62.3380952 37.0619048,58.8142857 C33.4285714,55.3904762 31.6095238,51.1142857 31.6095238,46.2 C31.6095238,41.2809524 33.4285714,37.1142857 37.0619048,33.5857143 C40.5904762,30.0619048 44.9714286,28.352381 49.9952381,28.352381 L49.9952381,28.352381 Z M66.7761905,14.8809524 C66.7761905,13.7047619 67.2047619,12.747619 67.952381,11.8904762 C68.8095238,11.1428571 69.7714286,10.7142857 70.9428571,10.7142857 L81.3142857,10.7142857 C82.3809524,10.7142857 83.3428571,11.1428571 84.2,11.8904762 C84.947619,12.747619 85.3761905,13.7047619 85.3761905,14.8809524 L85.3761905,24.7142857 C85.3761905,25.8904762 84.947619,26.852381 84.2,27.7095238 C83.3428571,28.4571429 82.3809524,28.8857143 81.3142857,28.8857143 L70.9428571,28.8857143 C69.7714286,28.8857143 68.8095238,28.4571429 67.952381,27.7095238 C67.2047619,26.852381 66.7761905,25.8904762 66.7761905,24.7142857 L66.7761905,14.8809524 L66.7761905,14.8809524 Z" id="Fill-46"></path>
        </g>
    </g>
</svg>
