<?xml version="1.0" encoding="UTF-8"?>
<svg width="99px" height="101px" viewBox="0 0 99 101" version="1.1" xmlns="http://www.w3.org/2000/svg" xmlns:xlink="http://www.w3.org/1999/xlink">
    <title>Fill 147</title>
    <g id="Page-1" stroke="none" stroke-width="1" fill="none" fill-rule="evenodd">
        <g id="fa-phone" transform="translate(0.543956, 0.000000)" fill="#FFFFFF">
            <path d="M0.34923803,27.9564074 C0.477464243,29.1013374 0.850992778,30.501326 1.22452131,32.02601 C1.6036249,33.556362 1.97715343,34.701292 2.22803081,35.3361047 C2.47890818,36.1012807 2.98066293,37.370906 3.60506884,39.281012 C4.35212591,41.191118 4.73122949,42.336048 4.98210687,42.8404974 C6.61002227,47.4202174 8.48324,51.6201834 10.7355613,55.1853367 C14.3649207,61.2897407 19.371318,67.524508 25.7547534,74.014334 C32.1326138,80.498492 38.2651718,85.5883294 44.2750787,89.278178 C47.7762118,91.568038 51.9073259,93.478144 56.4119685,95.1331914 C56.9137233,95.382582 58.0398839,95.768004 59.9131017,96.527512 C61.7918944,97.1679927 63.0462813,97.672442 63.7933384,97.9275007 C64.4177443,98.1825594 65.5439049,98.5679814 67.0491692,98.9477354 C68.5488584,99.3274894 69.9258964,99.7129114 71.0520571,99.8376067 C72.3008689,99.96797 73.4326046,100.092665 74.8040676,100.092665 C79.0634079,100.092665 83.3171731,98.9477354 87.6935895,96.527512 C92.4491095,93.857898 95.3258367,91.3129794 96.2066951,88.898424 C96.831101,87.753494 97.2046295,86.0984467 97.7063843,84.0636454 C98.208139,82.028844 98.4590164,80.3737967 98.4590164,79.0985034 C98.4590164,78.4636907 98.3307902,77.9535734 98.208139,77.5738194 C97.9572616,76.683948 96.2066951,75.539018 92.9508643,73.8839707 C92.075581,73.249158 90.8211941,72.6143453 89.1988538,71.724474 C87.4427122,70.8289347 86.0656741,69.9390634 84.6942111,69.1795553 C83.3171731,68.4143794 82.1910125,67.7795667 80.9366256,67.0143907 C80.8139744,66.8896953 80.1895685,66.5042734 79.186059,65.7447653 C78.1825495,65.1042847 77.4354925,64.5998353 76.6828603,64.2144134 C76.0584544,63.9593547 75.4340485,63.704296 74.8040676,63.704296 C73.8061331,63.704296 72.6799725,64.469472 71.3029344,65.7447653 C69.8032452,67.139086 68.5488584,68.5390747 67.4226977,70.194122 C66.2965371,71.724474 65.0477252,73.249158 63.6706872,74.5187834 C62.4163003,75.918772 61.2901397,76.5592527 60.5430826,76.5592527 C60.0413279,76.5592527 59.5395731,76.4288894 58.9151672,76.1738307 C58.2907613,76.0491354 57.7890066,75.7940767 57.5381292,75.6637134 C57.1646006,75.4086547 56.6628459,75.159264 55.7875626,74.6491467 C55.0349305,74.1390294 54.5331757,73.8839707 54.5331757,73.8839707 C48.1497403,70.194122 42.6471633,66.1245194 38.1425206,61.414436 C33.5096518,56.834716 29.5067639,51.2404293 25.8774046,44.7506034 C25.8774046,44.7506034 25.6265272,44.240486 25.1247725,43.480978 C24.6285928,42.5854387 24.3777154,42.0809893 24.126838,41.6955674 C23.9986118,41.4461767 23.7533095,40.9360593 23.6250833,40.2955787 C23.3742059,39.660766 23.2515547,39.1506487 23.2515547,38.6461993 C23.2515547,37.8810234 23.8759607,36.7360934 25.2529987,35.466468 C26.5018105,34.0664793 28.0070747,32.791186 29.5067639,31.646256 C31.1346793,30.501326 32.5117174,29.2317007 33.8887554,27.7013487 C35.1375672,26.30136 35.8901993,25.15643 35.8901993,24.1418633 C35.8901993,23.5070507 35.639322,22.86657 35.3884446,22.2317574 C35.0149161,21.4722493 34.5131613,20.7070733 33.8887554,19.6868387 C33.1361233,18.672272 32.7625947,18.0317914 32.6343685,17.907096 C31.8817364,16.6374707 31.2573305,15.4925407 30.5102734,14.092552 C29.7576413,12.6925633 28.882358,11.2925747 28.0070747,9.512832 C27.1317915,7.85778467 26.5018105,6.58249136 25.8774046,5.69262002 C24.2494892,2.38819333 23.1233285,0.60278269 22.2480452,0.353391997 C21.8745167,0.22302868 21.372762,0.0983333333 20.7483561,0.0983333333 C19.4939692,0.0983333333 17.8716288,0.353391997 15.8646098,0.857841354 C13.8631659,1.36795868 12.2408256,1.74771269 11.1146649,2.38819333 C8.73411737,3.27806467 6.23091869,6.20273735 3.60506884,11.037516 C1.22452131,15.4925407 0.0983606557,19.817202 0.0983606557,24.1418633 C0.0983606557,25.541852 0.226586869,26.686782 0.34923803,27.9564074" id="Fill-147"></path>
        </g>
    </g>
</svg>
