<?xml version="1.0" encoding="UTF-8"?>
<svg width="101px" height="82px" viewBox="0 0 101 82" version="1.1" xmlns="http://www.w3.org/2000/svg" xmlns:xlink="http://www.w3.org/1999/xlink">
    <title>fa-twitter</title>
    <g id="Page-1" stroke="none" stroke-width="1" fill="#FBFF00" fill-rule="evenodd">
        <g id="fa-twitter" fill="#FBFF00">
            <path d="M32.0268849,81.6505585 C39.3102098,81.6505585 46.1323082,80.5152316 52.6198905,78.2395094 C58.9908991,75.8472134 64.4495915,72.7757486 69.001036,68.9085413 C73.4359067,65.041334 77.4196878,60.6064633 80.7192316,55.5988606 C83.9022017,50.4797527 86.406003,45.244071 87.9974881,39.7853786 C89.5940416,34.3266863 90.3897841,28.8629255 90.3897841,23.2876594 L90.3897841,20.6723528 C94.3684967,17.7174617 97.7846143,14.1898388 100.628,10.0945525 C96.644219,11.6860375 92.7770117,12.8213644 88.7932306,13.1660172 C93.2331698,10.5456422 96.3046346,6.79500862 97.7846143,1.90397973 C93.8008332,4.2912073 89.4774678,5.99926609 84.814518,6.90651394 C80.7192316,2.5831485 75.711629,0.424 69.7967785,0.424 C64.2215124,0.424 59.3304835,2.35506944 55.3467025,6.33885048 C51.3679899,10.4341368 49.3203467,15.2136604 49.3203467,20.9004318 C49.3203467,22.3804116 49.5484257,23.9718966 49.8880101,25.5633817 C41.4693583,25.2237973 33.61837,23.0595803 26.2235398,19.3089468 C18.9452833,15.4417395 12.68578,10.4341368 7.56667207,4.17970198 C5.74710796,7.36267207 4.72328637,10.7737212 4.72328637,14.5294232 C4.72328637,17.9404724 5.63560264,21.2400162 7.22708768,24.311481 C8.93514648,27.2714404 11.094295,29.658668 13.9376807,31.5948059 C10.6381368,31.4782321 7.56667207,30.5709843 4.61178104,28.9794992 L4.61178104,29.2075783 C4.61178104,34.2101125 6.20326609,38.533478 9.27473087,42.2891799 C12.457701,46.0448819 16.3249083,48.3155357 21.1044318,49.3393573 C19.2848677,49.7955155 17.4653036,50.0235945 15.6457395,50.0235945 C14.5053441,50.0235945 13.2534435,49.9120892 11.7785322,49.6840101 C13.1419382,53.7792965 15.5291657,57.1903457 19.0567886,59.8107207 C22.5844116,62.5375327 26.5681926,63.9009387 31.0030634,63.9009387 C23.4967278,69.8208576 15.078076,72.6642433 5.51902889,72.6642433 C3.69946477,72.6642433 2.10797973,72.6642433 0.628,72.4361642 C10.0704734,78.5790938 20.6482737,81.6505585 32.0268849,81.6505585" id="Fill-178"></path>
        </g>
    </g>
</svg>
