<?xml version="1.0" encoding="UTF-8"?>
<svg width="213px" height="61px" viewBox="0 0 213 61" version="1.1" xmlns="http://www.w3.org/2000/svg" xmlns:xlink="http://www.w3.org/1999/xlink">
    <!-- Generator: Sketch 58 (84663) - https://sketch.com -->
    <title>Group 6</title>
    <desc>Created with Sketch.</desc>
    <g id="Pruebas" stroke="none" stroke-width="1" fill="none" fill-rule="evenodd">
        <g id="Common-elements" transform="translate(-320.000000, -362.000000)">
            <g id="Group" transform="translate(170.000000, 300.000000)">
                <g id="masthead-en" transform="translate(150.000000, 62.000000)">
                    <g id="Group">
                        <g id="Group-6">
                            <g id="masthead-en">
                                <rect id="Rectangle" x="211.944892" y="3.02376344" width="1" height="54.7360215"></rect>
                                <path d="M7.36597523,17.0144086 C8.26281734,16.2929032 9.34430341,15.4008602 10.5642724,14.3513978 C11.0126935,13.9644086 11.3819814,13.6298925 11.6589474,13.3544086 C11.9503189,13.0622089 12.1929648,12.7256508 12.3777399,12.3574194 C12.6052622,11.8853678 12.8013201,11.3989414 12.964644,10.9012903 L13.7691641,8.52688172 L13.6834365,8.52688172 C13.3555683,9.32220685 12.8504989,10.0331455 12.2062848,10.606129 C11.5895171,11.1263242 10.9444899,11.6124327 10.2741176,12.0622581 C9.53239606,12.5650137 8.8292533,13.121887 8.17049536,13.7282796 C7.38103704,14.4795961 6.73726001,15.3689463 6.27130031,16.3519355 L6.27130031,16.2666667 C6.77247678,14.8236559 7.15495356,13.6036559 7.4055418,12.6066667 C7.65613003,11.6096774 7.88034056,10.7307527 8.06498452,9.98301075 C8.23553618,9.29954797 8.48792871,8.63891126 8.81674923,8.01526882 C9.19106973,7.39599475 9.6920884,6.86190191 10.2873065,6.44763441 L10.2873065,6.36236559 C8.76587902,6.76162852 7.44901012,7.71124962 6.59442724,9.02537634 C5.64838249,10.3970255 5.15095108,12.0256421 5.17003096,13.6889247 L5.17003096,19.5068817 C5.74457152,18.5508959 6.48858104,17.7064192 7.36597523,17.0144086 Z M11.3226316,9.89774194 C12.0798554,9.12180965 12.7910568,8.30271995 13.4526316,7.44462366 C14.1120743,6.6116129 14.7121672,5.82451613 15.2924768,5.07677419 C15.8796443,4.33095649 16.5425958,3.64737442 17.270805,3.03688172 L17.1850774,2.9516129 C16.6376372,3.41845128 15.9903544,3.7549421 15.2924768,3.93548387 C14.4568612,4.19655785 13.65718,4.56010725 12.9118885,5.01774194 C11.9490164,5.63678736 11.123258,6.44473559 10.4851393,7.39215054 C9.54878814,8.85824559 8.87913312,10.4767997 8.50681115,12.1737634 C9.52770948,11.5217642 10.4721746,10.7583551 11.3226316,9.89774194 L11.3226316,9.89774194 Z M1.93876161,31.6544086 C2.51053999,32.51048 3.13605513,33.3298139 3.81157895,34.1075269 C4.58313134,35.0274196 5.26540083,36.0178953 5.84925697,37.0656989 L5.93498452,37.0656989 C5.86511529,36.6318715 5.82983511,36.1932292 5.82947368,35.753871 L5.82947368,34.5666667 C5.89162783,33.8147661 6.05121578,33.0740075 6.30427245,32.3627957 C6.62080495,31.3395699 6.96371517,30.1982796 7.29343653,28.952043 C7.62315789,27.7058065 7.95287926,26.4398925 8.19687307,25.1674194 C8.44519016,24.0483792 8.51859081,22.8979522 8.41448916,21.7566667 L8.30897833,21.7566667 C8.13197937,22.5058884 7.83352411,23.2214496 7.42532508,23.8752688 L6.10643963,26.0397849 C5.64625599,26.810368 5.25142272,27.6177486 4.92603715,28.4535484 C4.58536805,29.3434607 4.41537558,30.2889897 4.42486068,31.2411828 C4.44050399,31.7035077 4.50459704,32.1629479 4.61609907,32.612043 C4.70515424,32.9549442 4.77124359,33.3033434 4.81393189,33.6549462 L4.75458204,33.6549462 C4.54335765,32.46876 4.22781117,31.3033154 3.81157895,30.172043 C3.40272446,29.0635484 2.99386997,28.0337634 2.59160991,27.0958065 C2.18934985,26.1578495 1.8398452,25.292043 1.56947368,24.5115054 C1.33061635,23.8990786 1.19256114,23.2523624 1.1606192,22.5962366 C1.1606192,22.0452688 1.1606192,21.5992473 1.21337461,21.2844086 C1.26613003,20.9695699 1.26613003,20.5301075 1.26613003,20.0316129 L1.18040248,20.0316129 C0.917396492,20.7393953 0.697189033,21.4621914 0.520959752,22.196129 C0.271074499,23.0626358 0.135847922,23.9578523 0.11869969,24.8591398 C0.0764096151,26.2097295 0.240954911,27.5588583 0.606687307,28.8602151 C0.916784607,29.8491344 1.36520297,30.7897484 1.93876161,31.6544086 Z M17.1455108,54.2047312 C17.4500377,54.2353686 17.7560878,54.2485087 18.0621362,54.244086 C18.4810874,54.2458961 18.8996843,54.2195999 19.3150774,54.1653763 C19.7041486,54.1063441 20.2119195,54.0276344 20.8186068,53.916129 C21.4252941,53.8046237 22.2298142,53.6209677 23.2057895,53.3717204 C24.1817647,53.1224731 25.4742724,52.8076344 27.0899071,52.414086 C26.0282043,52.1386022 25.1115789,51.8762366 24.3334365,51.6269892 C23.4550464,51.3248623 22.6553425,50.8319231 21.9924149,50.1839785 C21.0428173,49.3575269 20.0998142,48.4982796 19.1502167,47.6127957 C18.4116409,46.9568817 17.6334985,46.3009677 16.8883282,45.6056989 C16.6773065,45.4154839 15.5694427,44.4512903 15.2595046,44.1364516 L15.1803715,44.2217204 C15.3056656,44.4184946 16.3343963,46.4780645 16.3343963,46.4780645 C16.3343963,46.4780645 16.499257,46.7010753 16.5652012,46.8191398 C16.8421672,47.3110753 17.1191331,47.8095699 17.3895046,48.3080645 C17.4950155,48.5048387 17.6005263,48.7016129 17.6994427,48.8983871 C18.0383115,49.5395704 18.5267543,50.0906265 19.123839,50.5053763 C20.1536813,51.3332628 21.3534414,51.9265744 22.6386687,52.2435484 L22.6386687,52.3288172 L20.8383901,52.0402151 C20.343808,51.9549462 19.895387,51.8893548 19.5195046,51.8303226 C19.1436223,51.7712903 18.7083901,51.7384946 18.2929412,51.7056989 C17.8774923,51.6729032 17.2839938,51.6466667 16.7894118,51.5745161 C16.2948297,51.5023656 16.0112693,51.4367742 15.6090093,51.3974194 L14.4549845,51.2662366 L13.8482972,51.194086 C13.1405778,51.1238855 12.4394419,50.9988827 11.7512693,50.8202151 C11.0861017,50.6483485 10.4488643,50.3833336 9.85866873,50.0331183 C9.13245794,49.5927126 8.45594103,49.0759455 7.84077399,48.4917204 L7.75504644,48.5769892 C8.08280792,49.1378914 8.46253853,49.6671087 8.88928793,50.1577419 C9.41135675,50.7615398 9.98743402,51.3169714 10.6104334,51.8172043 C11.3626131,52.4129615 12.1978422,52.8968348 13.0899381,53.2536559 C14.1482266,53.674427 15.2562955,53.958779 16.3871517,54.0997849 L17.1455108,54.2047312 Z M4.12151703,28.1583871 L4.22702786,28.1583871 C4.27120006,27.7150749 4.35281961,27.276249 4.47102167,26.8465591 C4.62650453,26.3558487 4.83431196,25.8830879 5.09089783,25.4363441 C5.48158695,24.7581069 5.9086425,24.1012456 6.37021672,23.4686022 C6.92414861,22.6946237 7.66931889,21.6407885 8.60572755,20.3070968 C9.18792103,19.4066618 9.63240081,18.4251969 9.924613,17.3948387 C10.2543344,16.2863441 10.4785449,15.486129 10.5840557,14.9876344 L10.4983282,14.9876344 C10.4016495,15.2356625 10.275457,15.4712826 10.1224458,15.6894624 C9.95563687,15.9169246 9.77735924,16.1358427 9.58829721,16.3453763 C9.31356688,16.6509999 9.02301849,16.9421829 8.71783282,17.2177419 C8.36173375,17.5522581 7.88034056,17.9982796 7.27365325,18.5295699 C6.36214375,19.2768423 5.62802732,20.2153356 5.12386997,21.2778495 C4.77538523,22.168208 4.49972234,23.085092 4.29956656,24.0195699 L4.22702786,24.0195699 C4.22702786,23.5801075 4.28637771,23.1472043 4.30616099,22.7077419 C4.32594427,22.2682796 4.30616099,21.7501075 4.30616099,21.0810753 C4.30616099,20.2546237 4.25340557,19.283871 4.14130031,18.1688172 C4.02919505,17.0537634 3.98962848,15.623871 3.98962848,13.8463441 C3.98497975,13.3020717 4.09740051,12.7631033 4.31934985,12.2655914 C4.53916409,11.7670968 4.73040248,11.2948387 4.89306502,10.8488172 L4.83371517,10.8488172 C3.78867763,12.1105052 2.97403279,13.5445997 2.42674923,15.0860215 C2.00455682,16.3314214 1.78202093,17.6351439 1.7673065,18.9493548 C1.78363008,20.4379684 2.07882804,21.9105088 2.6377709,23.2915054 C3.24840398,24.8765303 3.74425166,26.5029757 4.12151703,28.1583871 L4.12151703,28.1583871 Z M12.8327554,49.7117204 L16.3278019,50.5053763 L18.1478638,50.9186022 C17.4748227,50.1869752 16.8782607,49.3892225 16.3673684,48.5376344 C15.9238017,47.815279 15.5590409,47.0478833 15.2792879,46.2484946 C14.9451703,45.3433333 14.4681734,44.138638 13.8482972,42.6344086 C13.6971599,42.1858137 13.5165223,41.7475918 13.3075542,41.3225806 C13.1097214,40.9377778 12.8899071,40.5376703 12.6481115,40.1222581 C12.3909288,39.7024731 12.0875851,39.2367742 11.7248916,38.7054839 C11.3621981,38.1741935 10.9005882,37.5248387 10.3400619,36.7377419 L10.2543344,36.8230108 C10.419195,37.3739785 10.6565944,38.3775269 10.9665325,39.8139785 C11.2764706,41.2504301 11.560031,42.6147312 11.8435913,43.8937634 C12.0087585,44.8437776 12.394915,45.742234 12.9712384,46.5174194 C13.6393235,47.4197537 14.4093148,48.2428448 15.2660991,48.9705376 L15.1803715,49.0558065 C14.4403899,48.7307773 13.7587776,48.287663 13.1624768,47.7439785 C12.2356227,46.9854538 11.2191611,46.3422761 10.1356347,45.8287097 C8.41188545,45.0055084 6.7423445,44.0744292 5.13705882,43.0410753 C3.92620811,42.2347118 2.97757593,41.0951515 2.40696594,39.7615054 L2.32123839,39.8402151 C2.6303744,41.152565 3.15150885,42.4063416 3.86433437,43.5526882 C4.54753261,44.6375869 5.38490105,45.6184943 6.35043344,46.4649462 C7.29263618,47.2879046 8.33903959,47.984714 9.4630031,48.5376344 C10.5290625,49.0756089 11.6622137,49.4704204 12.8327554,49.7117204 Z M5.01176471,41.1389247 L11.2105263,45.2187097 C10.9335604,44.6611828 10.7027554,44.1364516 10.511517,43.637957 C10.3049972,43.1001291 10.1482785,42.5446693 10.0433127,41.9784946 C9.93780186,41.3684946 9.83888545,40.6666667 9.75975232,39.9386022 C9.6806192,39.2105376 9.58170279,38.2922581 9.47619195,37.2362366 C9.25857585,35.4062366 9.06733746,33.9960215 8.90247678,32.9924731 C8.70831101,31.884244 8.40799553,30.797033 8.00563467,29.7456989 L7.91331269,29.7456989 C7.92337558,30.5453979 7.88373344,31.344951 7.794613,32.1397849 C7.71807539,32.7578898 7.60578392,33.371093 7.45829721,33.9763441 C7.31981424,34.5273118 7.20770898,35.0389247 7.12857585,35.5111828 C7.03876216,36.0464751 6.99683335,36.5886329 7.00328173,37.1312903 C7.04700848,37.947512 7.22985866,38.7504092 7.54402477,39.5056989 C7.83677937,40.3198776 8.18035802,41.1150806 8.57275542,41.8866667 L8.49362229,41.9719355 C7.68053368,40.6524857 6.74202157,39.4136895 5.69099071,38.2725806 L3.17851393,35.6095699 C2.4741002,34.8703752 1.83019367,34.0763791 1.25294118,33.2351613 C0.685953549,32.3566022 0.329477854,31.3602208 0.211021672,30.3229032 C0.142402929,30.5840796 0.0895531214,30.8491049 0.052755418,31.1165591 C0.0178920061,31.3774957 0.000269058078,31.6404254 0,31.9036559 C0.00629679716,32.8779803 0.175672167,33.8444605 0.501176471,34.7634409 C0.820576406,35.7061591 1.24062146,36.6121197 1.75411765,37.4658065 C2.21980749,38.2580009 2.76557707,39.000847 3.38294118,39.6827957 C3.86218563,40.2343441 4.40944393,40.7235798 5.01176471,41.1389247 Z M55.8482043,5.06365591 C56.4285139,5.81139785 57.0483901,6.60505376 57.6880495,7.43806452 C58.3529588,8.29345528 59.0640021,9.11236303 59.8180495,9.8911828 C60.669681,10.7634165 61.6188576,11.5358598 62.6470588,12.1934409 C62.2747369,10.4964771 61.6050818,8.87792301 60.6687307,7.41182796 C60.0267895,6.46487318 59.1963579,5.65897695 58.2287926,5.04397849 C57.4848195,4.57722534 56.6850857,4.20483814 55.8482043,3.93548387 C55.1536363,3.7447431 54.5097536,3.40437089 53.9621981,2.93849462 L53.8764706,3.02376344 C54.6037923,3.64036724 55.2645988,4.33061108 55.8482043,5.08333333 L55.8482043,5.06365591 Z M61.3281734,50.0462366 C60.7370476,50.3961877 60.1001644,50.6632626 59.4355728,50.8398925 C58.7439072,51.0127794 58.0410104,51.1377033 57.3319505,51.2137634 L56.7318576,51.2793548 L55.5712384,51.4105376 C55.1755728,51.4564516 54.793096,51.5286022 54.3974303,51.5876344 C54.0017647,51.6466667 53.388483,51.6925806 52.8939009,51.7253763 C52.3993189,51.758172 52.076192,51.7909677 51.6673375,51.85 C51.258483,51.9090323 50.8100619,51.9746237 50.348452,52.0533333 C49.8868421,52.132043 49.2603715,52.2369892 48.5481734,52.3419355 L48.5481734,52.2632258 C49.8234435,51.9359408 51.01165,51.3360632 52.030031,50.5053763 C52.6103781,50.0861559 53.0845257,49.5381896 53.4148607,48.9049462 L53.7247988,48.3146237 C53.9951703,47.816129 54.2721362,47.3241935 54.5491022,46.8322581 C54.6192047,46.7141368 54.6962744,46.6002459 54.7799071,46.4911828 C54.7799071,46.4911828 55.8086378,44.4316129 55.9339319,44.2282796 L55.8547988,44.1430108 C55.5382663,44.4644086 54.4369969,45.4548387 54.2259752,45.6188172 C53.480805,46.2747312 52.7026625,46.9306452 51.9640867,47.625914 C51.0144892,48.5048387 50.0714861,49.364086 49.1218885,50.1905376 C48.4705152,50.8352807 47.6849101,51.3300935 46.8204334,51.6401075 C46.042291,51.8893548 45.1256656,52.1517204 44.0639628,52.4272043 C45.6795975,52.8141935 46.9786997,53.1355914 47.9480805,53.3848387 C48.9174613,53.634086 49.7219814,53.8111828 50.3286687,53.9226882 C50.935356,54.0341935 51.4497214,54.1194624 51.8387926,54.1719355 C52.2536816,54.2317317 52.6725228,54.2602359 53.0917337,54.2572043 C53.4214551,54.2572043 53.7511765,54.2572043 54.0083591,54.2178495 L54.8062848,54.1325806 C55.9371411,53.9915747 57.04521,53.7072227 58.1034985,53.2864516 C58.993601,52.9255887 59.8282724,52.4420385 60.5830031,51.85 C61.2228141,51.3455895 61.8144281,50.7834897 62.3503096,50.1708602 C62.7785563,49.6814002 63.1583918,49.1520367 63.4845511,48.5901075 L63.3460681,48.5376344 C62.7280613,49.1089906 62.0517628,49.6145995 61.3281734,50.0462366 L61.3281734,50.0462366 Z M66.0168111,43.0213978 C64.4100276,44.0522793 62.7406451,44.9832701 61.0182353,45.8090323 C59.9320325,46.3177774 58.914991,46.961322 57.9913932,47.7243011 C57.393247,48.265618 56.7120406,48.7084684 55.9734985,49.036129 L55.8877709,48.9508602 C56.7414438,48.2199442 57.5110904,47.3972213 58.1826316,46.4977419 C58.7568492,45.721358 59.1427853,44.8234142 59.3102786,43.874086 C59.5960372,42.6016129 59.8883901,41.243871 60.1873375,39.8008602 C60.4972755,38.3578495 60.7346749,37.3608602 60.8995356,36.8033333 L60.813808,36.7311828 C60.2532817,37.5117204 59.7916718,38.1610753 59.4289783,38.6989247 C59.0662848,39.2367742 58.7695356,39.695914 58.5057585,40.1091398 C58.2419814,40.5223656 58.0309598,40.9290323 57.8331269,41.3225806 C57.623058,41.7470995 57.4423898,42.1853957 57.2923839,42.6344086 C56.6725077,44.1364516 56.197709,45.3367742 55.8613932,46.2550538 C55.5818152,47.0524295 55.2170342,47.8176689 54.7733127,48.5376344 C54.2590751,49.376815 53.6626754,50.1633652 52.9928173,50.8858065 L54.8128793,50.5053763 L58.3079257,49.7445161 C59.4800632,49.492806 60.6132762,49.0869441 61.677678,48.5376344 C62.8004075,47.9825955 63.8465458,47.2859625 64.7902477,46.4649462 C65.7501257,45.6215825 66.5829677,44.6451922 67.2631579,43.5658065 C67.9812746,42.4088722 68.5068037,41.144163 68.8194427,39.8205376 L68.7337152,39.7352688 C68.1671023,41.0692123 67.223255,42.2108072 66.0168111,43.0213978 L66.0168111,43.0213978 Z M68.5820433,27.0892473 C68.1424149,28.0337634 67.7247678,29.061362 67.3291022,30.172043 C66.9129673,31.3078316 66.5974324,32.4776232 66.3860991,33.6680645 L66.3069659,33.6680645 C66.3496542,33.3164617 66.4157436,32.9680625 66.5047988,32.6251613 C66.6191947,32.1764322 66.6855086,31.7169181 66.7026316,31.2543011 C66.7114953,30.3021598 66.5415232,29.3567446 66.2014551,28.4666667 C65.8747223,27.6314517 65.479942,26.8241795 65.0210526,26.0529032 C64.5726316,25.3051613 64.1373994,24.5836559 63.7021672,23.8949462 C63.2952767,23.2381074 62.9969367,22.520608 62.8185139,21.7697849 L62.7327864,21.7697849 C62.6286847,22.9110704 62.7020854,24.0614975 62.9504025,25.1805376 C63.205387,26.4573835 63.5065325,27.7189247 63.853839,28.9651613 C64.2011455,30.2113978 64.5308669,31.3483154 64.8430031,32.375914 C65.0954944,33.0872847 65.2550665,33.8279698 65.3178019,34.5797849 L65.3178019,35.7473118 C65.3176899,36.18668 65.2824081,36.625342 65.212291,37.0591398 L65.2848297,37.0591398 C65.8690767,36.0120696 66.5536824,35.023605 67.3291022,34.1075269 C68.0030678,33.3285593 68.6285077,32.509324 69.2019195,31.6544086 C69.7821453,30.7897929 70.2392979,29.8494779 70.5603715,28.8602151 C70.9329763,27.5488213 71.1019845,26.1885072 71.061548,24.8263441 C71.0448513,23.9250188 70.9096159,23.0297442 70.6592879,22.1633333 C70.4840698,21.4291238 70.2638439,20.7062675 69.9998452,19.9988172 L69.9009288,19.9988172 C69.9009288,20.4973118 69.9009288,20.9170968 69.9536842,21.2450538 C70.0064396,21.5730108 70.0064396,22.0190323 70.0064396,22.5568817 C69.9732546,23.2128468 69.8352409,23.8593682 69.5975851,24.4721505 C69.3008359,25.2854839 68.9579257,26.1512903 68.5820433,27.0892473 Z M66.0431889,21.2647312 C65.5385817,20.2043547 64.8044595,19.2680939 63.8934056,18.5230108 L62.4426316,17.2111828 C62.0865325,16.8766667 61.7831889,16.5552688 61.5787616,16.3322581 C61.3897253,16.1227026 61.2114487,15.9037858 61.044613,15.6763441 C60.8870935,15.4491487 60.7606887,15.2021034 60.6687307,14.9417204 L60.5830031,14.9417204 C60.6951084,15.4402151 60.9193189,16.2535484 61.2424458,17.3554839 C61.5371877,18.3849244 61.981505,19.3660306 62.5613313,20.2677419 C63.4977399,21.5795699 64.2429102,22.6487097 64.7968421,23.4292473 C65.2583849,24.0619122 65.6854393,24.7187718 66.076161,25.3969892 C66.3318903,25.8464556 66.5396463,26.3212978 66.6960372,26.8137634 C66.8148272,27.2433193 66.8964561,27.6821952 66.940031,28.1255914 L67.0455418,28.1255914 C67.4114549,26.4694173 67.9007943,24.8426297 68.5095046,23.2587097 C69.068815,21.8689026 69.3618105,20.387293 69.3733746,18.8903226 C69.3581508,17.5740151 69.1356373,16.268211 68.7139319,15.0204301 C68.164461,13.4919691 67.3498043,12.0711737 66.3069659,10.8225806 L66.2212384,10.8225806 C66.3860991,11.262043 66.5773375,11.7343011 66.7949536,12.2327957 C67.0163217,12.7304933 67.1287161,13.2693356 67.1246749,13.8135484 C67.1246749,15.5932616 67.0719195,17.0362724 66.9664087,18.1425806 C66.8608978,19.2488889 66.8081424,20.2196416 66.8081424,21.0548387 C66.8081424,21.7107527 66.8081424,22.2617204 66.8081424,22.6749462 C66.8081424,23.088172 66.8543034,23.5210753 66.8872755,23.9867742 L66.8081424,23.9867742 C66.6151648,23.0598147 66.3483478,22.1495953 66.0102167,21.2647312 L66.0431889,21.2647312 Z M62.3173375,8.03494624 C62.6466839,8.65835303 62.899101,9.3190542 63.0691022,10.0026882 C63.2603406,10.7504301 63.4845511,11.6227957 63.7285449,12.6263441 C63.9725387,13.6298925 64.3550155,14.8433333 64.8627864,16.2863441 L64.8627864,16.3716129 C64.394396,15.3900499 63.7509189,14.5011141 62.9635913,13.747957 C62.3034692,13.1451455 61.6004324,12.5905484 60.859969,12.0884946 C60.1886464,11.637053 59.5415095,11.1510134 58.9212074,10.6323656 C58.2817746,10.0476424 57.7816263,9.32832481 57.4572446,8.52688172 L57.371517,8.52688172 C57.7078328,9.52387097 57.9782043,10.3109677 58.1760372,10.8947312 C58.3370588,11.393211 58.5331787,11.8797912 58.7629412,12.3508602 C58.946092,12.7184102 59.1864521,13.0548846 59.4751393,13.3478495 C59.7586997,13.6298925 60.134582,13.9578495 60.5764087,14.3448387 C61.8117647,15.3986738 62.8778638,16.2863441 63.7747059,17.0078495 C64.6449852,17.7075307 65.380127,18.5587546 65.9442724,19.52 L65.9442724,13.6954839 C65.9619924,12.0344326 65.4646221,10.4083062 64.5198762,9.03849462 C63.6687721,7.72390747 62.3536987,6.77388463 60.8335913,6.37548387 L60.8335913,6.46075269 C61.4324743,6.87757868 61.9377377,7.4136423 62.3173375,8.03494624 Z M52.6301238,55.9166667 C52.1663189,55.9085092 51.7045426,55.8535684 51.2518885,55.7526882 L49.7021981,55.464086 L49.7021981,55.464086 C49.2076161,55.3066667 48.6470898,55.1164516 48.0140248,54.8934409 C47.3809598,54.6704301 46.6028173,54.3949462 45.7059752,54.0604301 L42.1383901,52.8535484 C41.3670048,52.5963515 40.5581674,52.4678073 39.744613,52.4731183 C38.923421,52.484631 38.1056792,52.5813556 37.3046749,52.7617204 C36.4737771,52.9453763 35.8670898,53.0896774 35.4714241,53.1946237 C35.1219195,53.0896774 34.5416099,52.9453763 33.7107121,52.7617204 C32.9163229,52.5818186 32.1051879,52.4850912 31.2905573,52.4731183 C30.4793804,52.4774948 29.674687,52.6171746 28.909969,52.8863441 C28.0988545,53.161828 26.9316409,53.5422581 25.3555728,54.1260215 C23.5157276,54.7819355 22.1506811,55.2541935 21.2604334,55.5296774 C20.3675887,55.8031725 19.4381805,55.9402896 18.5039628,55.9363441 C18.1113566,55.9364671 17.7191919,55.9101705 17.3301548,55.8576344 C16.9875743,55.8128436 16.6512702,55.7292174 16.3278019,55.6083871 C16.3278019,55.6083871 15.543065,55.3788172 15.1078328,55.1951613 L13.5119814,54.4408602 L13.4328483,54.5195699 C14.3232696,55.374498 15.3076444,56.1269804 16.3673684,56.7627957 C17.7619537,57.5993381 19.355061,58.052076 20.9834675,58.0746237 C21.5836365,58.0772149 22.1831734,58.0355596 22.7771517,57.95 C23.323538,57.8610716 23.8571447,57.7069115 24.3664087,57.4908602 C24.8939628,57.2744086 25.4808669,56.9923656 26.1205263,56.6644086 C26.7601858,56.3364516 27.5317337,55.8904301 28.4219814,55.3525806 C29.3122291,54.8147312 30.1629102,54.2572043 30.8025697,53.8964516 C31.4821966,53.5302205 32.2454606,53.3449445 33.0182972,53.3586022 C33.3588437,53.3623663 33.696831,53.4176588 34.0206502,53.5225806 C32.9259752,54.134767 31.6642415,54.8781362 30.2354489,55.7526882 C28.7046832,56.6983369 27.3131889,57.8506067 26.100743,59.1765591 L27.5185449,60.4227957 C28.7646705,58.9564069 30.149237,57.6121958 31.6532508,56.4086022 C32.7988998,55.4144851 34.0996304,54.6125248 35.5043963,54.0341935 C36.9045652,54.6214089 38.2039382,55.4225322 39.3555418,56.4086022 C40.8752307,57.6009521 42.2713864,58.9412966 43.5232198,60.4096774 L44.9476161,59.1634409 C43.7161094,57.8325624 42.2993096,56.6839832 40.7403715,55.7526882 C39.2895975,54.8781362 38.0058824,54.1478853 36.889226,53.5619355 C37.2469867,53.4676031 37.6140764,53.4126143 37.9839009,53.397957 C38.7588299,53.3843547 39.5242093,53.5695929 40.2062229,53.9358065 C40.8524768,54.2987455 41.6504025,54.7841219 42.6,55.3919355 L44.7827554,56.6709677 C45.3317584,56.9965436 45.9075376,57.2752128 46.5039009,57.5039785 C47.0124175,57.6894898 47.5322156,57.8428421 48.0601858,57.9631183 C48.6007224,58.071668 49.1507548,58.1265966 49.7021981,58.1270968 L50.0385139,58.1270968 C51.3512954,58.0976302 52.6458122,57.8147169 53.8500929,57.294086 C55.2903283,56.6822392 56.5663867,55.7432336 57.5759443,54.5523656 L57.5759443,54.4408602 C56.6758382,54.8707768 55.751011,55.2474888 54.8062848,55.5690323 C54.1032992,55.7945188 53.3687484,55.9074329 52.6301238,55.9035484 L52.6301238,55.9166667 Z M71.1340867,31.7724731 C71.1340867,31.6872043 71.1340867,31.6019355 71.1340867,31.5166667 C71.1277668,31.3870666 71.1145594,31.2578898 71.0945201,31.1296774 C71.0549536,30.8804301 71.0021981,30.6180645 70.9362539,30.3360215 C70.8167679,31.3700606 70.462758,32.3636096 69.9009288,33.2417204 C69.3225062,34.0764317 68.6833314,34.8678364 67.9885449,35.6095699 L67.8500619,35.753871 L65.4694737,38.2791398 C64.4407481,39.4023017 63.5200984,40.6188741 62.7195975,41.9129032 L62.7195975,41.9129032 C63.1082347,41.1478406 63.4367395,40.3539991 63.7021672,39.5384946 C63.9948206,38.7807609 64.1640075,37.9814235 64.2033437,37.1706452 C64.2064151,36.6259258 64.1645096,36.0818753 64.0780495,35.5439785 C63.9945201,35.0717204 63.8956037,34.5601075 63.7813003,34.0091398 C63.6296285,33.4516129 63.5307121,32.7956989 63.4515789,32.1397849 C63.3540109,31.345461 63.3055606,30.5459286 63.3065015,29.7456989 L63.2405573,29.7456989 L63.2405573,29.798172 L63.2405573,29.7522581 L63.1548297,29.7522581 C62.7504378,30.8141831 62.4500964,31.9124709 62.2579876,33.031828 C62.0997214,34.0288172 61.9018885,35.4455914 61.6842724,37.2690323 C61.5787616,38.3250538 61.4864396,39.2367742 61.4007121,39.977957 C61.3149845,40.7191398 61.2226625,41.4012903 61.1171517,42.0178495 C61.0170615,42.5723584 60.866982,43.1167783 60.6687307,43.6445161 C60.50387,44.0708602 60.3060372,44.5234409 60.0818266,44.9563441 C60.0422601,45.0350538 59.9960991,45.1072043 59.9499381,45.185914 L59.9829102,45.185914 L62.0601548,43.8150538 L66.2410217,41.0995699 C66.8419785,40.6825123 67.3890336,40.1934582 67.8698452,39.6434409 C68.480243,38.9721807 69.0133039,38.235169 69.4591022,37.446129 C69.7543685,36.9196281 70.0185919,36.3764884 70.2504334,35.8194624 C70.4021053,35.471828 70.5471827,35.1176344 70.6724768,34.7437634 C70.9989429,33.8227665 71.1683358,32.8539693 71.1736533,31.8774194 L71.1736533,31.8774194 C71.1406811,31.8577419 71.1340867,31.811828 71.1340867,31.7593548 L71.1340867,31.7724731 Z M46.8204334,7.26752688 C46.9782649,7.33477121 47.1285624,7.41831155 47.2688545,7.51677419 C47.3672229,7.62089697 47.4596879,7.73038533 47.5458204,7.84473118 C47.6085001,7.94553571 47.7169638,8.00928491 47.8359752,8.01526882 C47.9942415,8.01526882 48.079969,7.95623656 48.079969,7.84473118 C48.079969,7.73322581 48.079969,7.69387097 48.0404025,7.72010753 C48.0008359,7.74634409 47.9942415,7.72010753 47.9942415,7.59548387 C48.0113493,7.41687688 47.9541532,7.2390956 47.8359752,7.10354839 C47.6516405,6.90038542 47.3598639,6.83240705 47.1039938,6.93301075 C47.0629985,6.88800112 47.0065262,6.85991607 46.9457276,6.85430108 L46.8204334,6.85430108 C46.6621672,6.85430108 46.5764396,6.90677419 46.5764396,7.01827957 C46.5764396,7.12978495 46.6687616,7.21505376 46.8204334,7.26752688 Z M37.9377399,5.24731183 L38.109195,5.24731183 C38.434492,5.13254028 38.7738678,5.06193954 39.1181424,5.03741935 L40.2919505,5.03741935 C40.4853725,5.05324072 40.6745455,4.97504409 40.7997214,4.82752688 C40.8955316,4.70915407 40.9794612,4.58173639 41.0503096,4.44709677 C40.8017529,4.12980911 40.4409391,3.91870145 40.0413622,3.85677419 C39.7643965,3.80999524 39.4846203,3.78150998 39.20387,3.77150538 C38.8578046,3.83953605 38.5197047,3.94284104 38.1949226,4.07978495 C37.6343963,4.27655914 37.2980805,4.40774194 37.1859752,4.46677419 C36.9024149,4.40774194 36.7375542,4.46677419 36.6847988,4.64387097 C36.8261632,4.78439621 36.978293,4.91378214 37.1398142,5.03086022 C37.3755771,5.18623989 37.6553117,5.26212293 37.9377399,5.24731183 L37.9377399,5.24731183 Z M35.4120743,50.8530116 C45.6200363,50.8556638 54.8243397,44.7414822 58.732606,35.3617822 C62.6408723,25.9820823 60.4833406,15.1842629 53.2661644,8.00383034 C46.0489883,0.823397772 35.193642,-1.32541054 25.7624593,2.55949086 C16.3312765,6.44439226 10.1817957,15.5978443 10.1817957,25.7511828 C10.1963276,39.6059878 21.4827362,50.8349358 35.4120743,50.8530116 Z M11.467709,26.3874194 L15.3056656,26.3874194 C15.3587393,28.0625428 15.6246267,29.7242618 16.0969969,31.3330108 C15.9771973,31.305737 15.8729822,31.2327056 15.8068421,31.1296774 L15.6881424,31.0116129 L15.2660991,30.4212903 L14.5670898,30.6770968 C14.5670898,31.064086 14.4286068,31.2083871 14.1516409,31.0968817 C14.0670759,30.997462 13.9458918,30.9360125 13.8153251,30.9263441 C13.6141044,30.9137892 13.41614,30.9814494 13.2651774,31.1143733 C13.1142148,31.2472972 13.0226817,31.4345421 13.010805,31.6347312 C12.9486635,31.9531832 12.9068154,32.2752227 12.8855108,32.5989247 L13.4724149,34.1075269 C13.5911146,34.2780645 13.7559752,34.3043011 13.9801858,34.1927957 C14.1433626,34.394229 14.3195889,34.5848495 14.5077399,34.7634409 C14.6211988,34.8761403 14.776076,34.9377596 14.9363777,34.9339785 C15.0079388,34.9448357 15.0804757,34.9216699 15.1323061,34.8714057 C15.1841365,34.8211414 15.2092555,34.7496022 15.2001548,34.678172 L15.2858824,34.678172 C15.4088835,34.7989197 15.5255401,34.9258985 15.635387,35.0586022 C15.7619025,35.203127 15.9084485,35.3290122 16.0706192,35.4324731 L16.0706192,35.3537634 C16.2590672,35.5433208 16.5148292,35.6516735 16.7828173,35.6554839 C16.8624649,36.0018742 17.0331386,36.3210239 17.2773994,36.5803226 C17.4409971,36.7790183 17.6793515,36.9022993 17.9368421,36.9213978 C18.0674089,36.9117295 18.1885929,36.85028 18.2731579,36.7508602 C18.3624001,37.054295 18.502887,37.3404192 18.6886068,37.5969892 C18.8345168,37.6709824 18.9754891,37.7542368 19.1106502,37.8462366 C19.2308243,37.9204642 19.3434593,38.006136 19.4469659,38.102043 L19.6184211,38.102043 C19.6965326,38.3532022 19.8398303,38.5794417 20.03387,38.757957 C20.1880491,38.915004 20.3582201,39.055688 20.5416409,39.1777419 L20.4888854,39.1777419 L20.5350464,39.1777419 L20.5943963,39.1777419 C20.6537461,39.2433333 20.7065015,39.3089247 20.7658514,39.367957 L18.0555418,42.0637634 C13.9902319,37.8257659 11.6438572,32.2423549 11.467709,26.3874194 Z M29.9321053,19.3494624 C29.8622512,19.3014733 29.7895837,19.257668 29.7144892,19.2182796 L29.4573065,18.9624731 C30.9321671,17.6862596 32.783173,16.9199013 34.7328483,16.7782796 L34.7328483,19.4347312 C34.6994447,19.4067657 34.6615469,19.3845922 34.620743,19.3691398 C34.5951759,19.3436476 34.5730125,19.3149894 34.5547988,19.283871 L34.5547988,19.283871 C34.4940836,19.2454204 34.4218067,19.2291872 34.3503715,19.237957 C34.3196748,19.2348884 34.2887462,19.2348884 34.2580495,19.237957 L34.2580495,19.237957 C34.1967197,19.230668 34.1347354,19.230668 34.0734056,19.237957 C34.0098811,19.2610906 33.9431561,19.2743641 33.8755728,19.2773118 C33.8410983,19.287153 33.8045363,19.287153 33.7700619,19.2773118 C33.6909288,19.2182796 33.6513622,19.1002151 33.6513622,18.8968817 L33.6513622,18.8968817 L33.6513622,18.8968817 C33.4205573,19.0083871 33.2952632,19.1198925 33.2688854,19.2313978 C33.2425077,19.3429032 33.1963467,19.5331183 33.1435913,19.8151613 C33.0932476,20.0318812 32.9294485,20.2048298 32.7149536,20.2677419 C32.5272117,20.3306156 32.3544045,20.4310664 32.2071827,20.5629032 L31.95,20.3989247 L31.5279567,20.3989247 C31.4536256,20.3161861 31.3668719,20.2453844 31.270774,20.1890323 C31.2095652,20.1563855 31.1539259,20.1143259 31.1059133,20.0644086 C31.0531579,20.0075627 31.0267802,20.0075627 31.0267802,20.0644086 C30.9725098,20.0589295 30.9182886,20.0752516 30.8761804,20.1097434 C30.8340722,20.1442352 30.8075698,20.1940356 30.8025697,20.2480645 L30.5519814,20.0053763 L30.6179257,20.0053763 L30.6179257,19.8086022 C30.4153313,19.6324386 30.1942407,19.4785033 29.958483,19.3494624 L29.9321053,19.3494624 Z M28.55387,18.0376344 L25.9754489,15.4730108 C28.3813675,13.2800256 31.4859819,11.9983889 34.7460372,11.8523656 L34.7460372,15.4795699 C32.4582031,15.631582 30.2874805,16.5414088 28.5802477,18.063871 L28.55387,18.0376344 Z M30.0310217,30.172043 C30.1629102,30.0408602 30.1035604,29.798172 30.1563158,29.6341935 L29.866161,29.8965591 C30.0693897,29.7077564 30.2388636,29.4859576 30.3673375,29.2406452 C30.4331332,29.0786614 30.5172007,28.924629 30.6179257,28.7815054 L30.6179257,28.7815054 C30.7102477,28.9586022 30.8157585,29.1356989 30.9212693,29.3062366 L28.5670588,31.6478495 C27.6110495,30.5680573 26.9322498,29.2739864 26.5887307,27.8763441 C26.7912033,27.9029961 26.9888244,27.9582107 27.1756347,28.0403226 C27.3625105,28.1874805 27.5387933,28.3474778 27.7031889,28.5191398 C27.8227791,28.5190059 27.9405149,28.4897294 28.0460991,28.433871 L28.3824149,28.6896774 C28.3644539,28.8330513 28.3945896,28.9783121 28.4681424,29.1029032 C28.4681424,29.1619355 28.55387,29.2275269 28.7253251,29.3127957 C28.8646646,29.374969 28.9835265,29.4750064 29.0682353,29.6013978 L29.233096,29.5226882 C29.2271242,29.410455 29.2139081,29.2987194 29.1935294,29.188172 C29.1935294,29.0241935 29.1935294,28.9389247 29.233096,28.9389247 L29.3979567,29.5226882 L29.5694118,30.1786022 L29.5694118,30.1786022 C29.7151939,30.2512316 29.8873849,30.2487849 30.0310217,30.172043 L30.0310217,30.172043 Z M35.0493808,32.7956989 C35.1878638,32.9334409 35.253808,33.031828 35.253808,33.0843011 C35.253808,33.2548387 35.0295975,33.3335484 34.5943653,33.3335484 C34.4229102,33.3335484 34.310805,33.4975269 34.2514551,33.8123656 C34.1921053,34.1272043 34.1393498,34.396129 34.0865944,34.6060215 L33.9481115,34.6060215 C33.9481115,34.6060215 33.9481115,34.6060215 33.9481115,34.6388172 C32.2936315,34.3728232 30.7458441,33.6552957 29.4770898,32.566129 L31.7521672,30.3032258 C32.6269337,31.1240715 33.7529382,31.6297941 34.9504644,31.7396774 C34.9405282,31.8629641 34.9681,31.9863735 35.0295975,32.093871 C34.9194195,32.2029199 34.8597122,32.3525772 34.8647368,32.5070968 C34.8383591,32.566129 34.9043034,32.6645161 35.0493808,32.7956989 Z M23.8388545,32.9531183 C23.8104676,32.4756818 23.7532123,32.0003777 23.6673994,31.5297849 C23.5964441,31.2736053 23.5105716,31.0217465 23.4102167,30.7754839 C23.3787145,30.3885446 23.2898263,30.0083707 23.1464396,29.6473118 C22.9297783,29.2649448 22.6612887,28.9140241 22.3485139,28.6044086 L22.3485139,28.1190323 C22.3135029,27.9512025 22.2581447,27.788219 22.1836533,27.6336559 L22.1836533,27.5483871 C22.168944,27.4539548 22.2245707,27.3626618 22.3155418,27.3319355 L23.199195,27.0302151 C23.1791914,26.7713258 23.2082718,26.511003 23.2849226,26.2627957 L23.8982043,26.3677419 C24.0696594,26.3677419 24.155387,26.2562366 24.155387,26.0201075 C24.1173321,25.8425075 24.0621223,25.668978 23.9905263,25.5019355 C23.8986443,25.3121928 23.8406287,25.1080053 23.8190712,24.8984946 C23.8190712,24.7804301 23.9047988,24.682043 24.0696594,24.5967742 C24.2240336,24.5144828 24.3957343,24.4695402 24.5708359,24.4655914 C24.8040585,24.4515822 25.0273222,24.5613692 25.1577399,24.7541935 C25.2693674,24.9547487 25.3262088,25.1808977 25.3226006,25.4101075 C25.3237066,25.5618679 25.3104594,25.7133955 25.2830341,25.8626882 C25.2534152,25.9829374 25.2379247,26.106199 25.2368731,26.23 L25.4083282,26.3152688 C25.2940248,26.8662366 25.0742105,27.1417204 24.7488854,27.1417204 C24.5943152,27.1312148 24.4589935,27.0347109 24.3993808,26.8924731 C24.348899,26.7747034 24.237423,26.6940638 24.109226,26.6825806 C24.0564706,26.6825806 24.0300929,26.6825806 24.0300929,26.7678495 C24.0318861,26.8858327 24.0588592,27.0020908 24.109226,27.1089247 C24.1719116,27.2397658 24.2013488,27.3839117 24.1949536,27.5287097 C24.1949536,27.9222581 24.016904,28.06 23.6673994,27.9484946 C23.5486997,28.1583871 23.6673994,28.2633333 24.0103096,28.2633333 C24.1290093,28.6044086 24.247709,28.7421505 24.3664087,28.6896774 C24.4623022,28.5131712 24.5206635,28.3189301 24.5378638,28.1190323 C24.5710202,27.8948746 24.6285077,27.6749521 24.7093189,27.4631183 L24.8016409,27.5483871 L25.1511455,27.4631183 C25.1473949,27.5045757 25.1473949,27.5462845 25.1511455,27.5877419 L25.2500619,27.5877419 C25.589532,29.4336527 26.4363397,31.1499894 27.6965944,32.5464516 L24.1224149,36.0752688 C23.9667173,35.9371613 23.8943042,35.7285353 23.9311765,35.5243011 C24.0037152,35.1832258 24.3466254,34.9733333 24.3927864,34.6191398 C24.3927864,34.6191398 24.4785139,33.9632258 24.4785139,33.9632258 C24.2178226,33.6661059 24.0103793,33.3266543 23.8652322,32.9596774 L23.8388545,32.9531183 Z M21.8011765,27.7058065 C21.8581394,27.8057696 21.8877018,27.9188628 21.886904,28.0337634 C21.886904,28.2043011 21.8341486,28.2764516 21.7154489,28.2436559 L21.6560991,28.2436559 C21.5376877,27.6198697 21.4627722,26.9886877 21.4318885,26.3546237 L22.1572755,26.3546237 C22.1553781,26.471898 22.1307484,26.5877065 22.0847368,26.6956989 C22.0215638,26.8115218 21.9510823,26.9232506 21.8737152,27.0302151 C21.7947587,27.1221752 21.7484132,27.2374189 21.7418266,27.358172 C21.7402882,27.4877839 21.7696675,27.6159117 21.8275542,27.732043 L21.8011765,27.7058065 Z M21.4318885,25.0821505 C21.5984134,21.8506583 22.8953828,18.7787184 25.0983901,16.3978495 L27.6965944,18.955914 L27.6240557,19.0411828 C27.4694501,19.0778851 27.3191509,19.130648 27.1756347,19.1986022 C27.0635294,19.3363441 26.9448297,19.4937634 26.8063467,19.6905376 C26.5246962,19.7987599 26.256869,19.9396625 26.0084211,20.1103226 C25.7674417,20.3068433 25.5465563,20.5265467 25.3489783,20.7662366 C25.0126625,20.9367742 24.8016409,21.0286022 24.6895356,21.0613978 C24.57587,21.1049278 24.4741803,21.1746058 24.3927864,21.2647312 C24.5048916,21.5467742 24.5048916,21.6976344 24.3927864,21.723871 L23.5486997,21.9337634 C23.4853439,21.941921 23.4269388,21.9721292 23.383839,22.0190323 L23.1332508,22.2682796 C23.0815849,22.3585287 23.0522031,22.4596907 23.0475232,22.5634409 C23.0433518,22.6652078 23.0138987,22.7643619 22.9617957,22.852043 C22.7978886,22.9646032 22.6569174,23.1070457 22.5463467,23.271828 C22.4470301,23.5135588 22.4470301,23.7843982 22.5463467,24.026129 L22.6518576,24.8591398 L22.612291,24.8591398 C22.6455692,24.9415929 22.669887,25.0273493 22.6848297,25.1149462 L21.4318885,25.0821505 Z M28.5802477,33.4516129 C29.8600019,34.5718449 31.3980661,35.360419 33.0578638,35.7473118 L32.6885759,35.8719355 C32.4223918,35.9314562 32.2205421,36.1478703 32.180805,36.4163441 C32.1280495,36.7508602 32.0027554,36.9673118 31.8049226,37.0722581 C31.6070898,37.1772043 31.5411455,37.2821505 31.5939009,37.4526882 C31.8725438,37.7343977 32.074518,38.082011 32.180805,38.4627957 C32.2892567,38.8570228 32.6192351,39.1519013 33.0248916,39.2170968 L33.5260681,39.3876344 C33.7067521,39.4026407 33.8799603,39.4661128 34.0272446,39.5712903 C34.172322,39.5712903 34.3173994,39.6106452 34.4624768,39.6434409 C31.3087713,39.4248177 28.3243071,38.1430207 26.0018266,36.0096774 L28.5802477,33.4516129 Z M25.0983901,14.6006452 L22.5529412,12.0622581 C25.8761841,8.9623898 30.218998,7.16975453 34.7724149,7.01827957 L34.7724149,10.606129 C31.1739029,10.7561192 27.7457237,12.1716538 25.0983901,14.6006452 L25.0983901,14.6006452 Z M24.201548,15.4992473 C21.7565399,18.1305366 20.3329196,21.5414981 20.1855418,25.1215054 L16.5783901,25.1215054 C16.7290955,20.5901713 18.5314851,16.2680011 21.6495046,12.9608602 L24.201548,15.4992473 Z M20.1855418,26.3874194 C20.2141805,27.0073631 20.2802439,27.6250353 20.3833746,28.2370968 C20.3330427,28.1563755 20.2868234,28.0731881 20.2448916,27.9878495 C20.0470588,27.7189247 19.8756037,27.5811828 19.7503096,27.5811828 C19.6018755,27.5678445 19.462319,27.6532658 19.4073994,27.7910753 C19.3489728,27.9322551 19.2613491,28.0596353 19.1502167,28.1649462 C18.8756758,28.3721685 18.5579633,28.5156068 18.2204025,28.5847312 C17.9612023,28.8661764 17.7854473,29.213535 17.7126316,29.5882796 C17.6522505,29.6966705 17.6681748,29.8313026 17.7521981,29.9227957 C17.8379257,30.0343011 17.7917647,30.1458065 17.626904,30.2573118 C17.7390093,30.4803226 17.765387,30.6180645 17.7126316,30.6770968 C17.765387,30.7886022 17.7521981,30.827957 17.6664706,30.8017204 C17.5944686,30.7724315 17.5118927,30.7878316 17.4554489,30.8410753 C17.4024197,30.8951195 17.3619077,30.9600396 17.3367492,31.0312903 C16.8855571,29.5219112 16.6306949,27.9612428 16.5783901,26.3874194 L20.1855418,26.3874194 Z M34.7724149,49.5674194 C28.8622769,49.4058927 23.2226765,47.0686334 18.9457895,43.0082796 L21.6560991,40.305914 C25.2180157,43.6459049 29.8861352,45.573158 34.7790093,45.7237634 L34.7724149,49.5674194 Z M34.7724149,44.484086 C30.2433038,44.3331762 25.9219104,42.5579561 22.6056966,39.4860215 C22.8104492,39.5917581 23.0349548,39.6542833 23.2651393,39.6696774 C23.4942203,39.6525685 23.7179742,39.5924782 23.924582,39.4925806 C24.1838132,39.3886794 24.4369954,39.27043 24.6829412,39.1383871 C24.9462471,39.1563719 25.2092653,39.0995 25.4413003,38.9744086 C25.6572138,39.0326594 25.8848295,39.0326594 26.100743,38.9744086 C26.2903903,38.9266863 26.4165088,38.7482777 26.3974923,38.5546237 C26.3821741,38.3617874 26.2707596,38.1894034 26.100743,38.0954839 C25.8963158,37.9577419 25.7973994,37.8331183 25.7973994,37.7216129 C25.7973994,37.6101075 25.744644,37.5969892 25.6259443,37.5117204 C25.4287812,37.3262256 25.2478783,37.1243475 25.0852012,36.9082796 L25.0852012,36.9082796 C27.7331767,39.33537 31.1614394,40.7486147 34.759226,40.8962366 L34.7724149,44.484086 Z M35.4318576,35.1701075 L35.4318576,35.1701075 C35.1483723,35.1920166 34.8636903,35.1470708 34.6009598,35.0389247 C34.6009598,34.9667742 34.5416099,34.8946237 34.5152322,34.815914 C34.6411529,34.7218433 34.7733449,34.6363782 34.9108978,34.5601075 C35.0635756,34.4456821 35.2427144,34.3712524 35.4318576,34.3436559 L35.4318576,34.1075269 L36.0517337,33.641828 C36.1195672,33.6041704 36.1930418,33.5775954 36.2693498,33.5631183 C36.4319453,33.5189893 36.5907206,33.4619606 36.7441486,33.3925806 C36.9751916,33.4639832 37.1966351,33.5630996 37.4035913,33.6877419 C37.6093291,33.8130547 37.8311512,33.9101341 38.0630341,33.9763441 L38.1487616,33.641828 C38.2608669,33.641828 38.4257276,33.7533333 38.6499381,33.9763441 C38.8032571,33.9619704 38.9494621,33.9051646 39.0719814,33.8123656 C39.1249513,33.6773967 39.1249513,33.5275495 39.0719814,33.3925806 C39.1600286,33.4056116 39.2449478,33.4345074 39.3225697,33.4778495 C39.3690986,33.4740233 39.4149521,33.4908263 39.4478638,33.5237634 C39.4830567,33.5522904 39.5278762,33.5663681 39.5731579,33.5631183 L39.6588854,33.5631183 C39.8293477,33.537088 39.9891728,33.4644161 40.1204954,33.3532258 C40.2676241,33.2447797 40.4218336,33.1461755 40.5821053,33.0580645 C40.6021271,33.03314 40.6324605,33.0186276 40.6645356,33.0186276 C40.6966107,33.0186276 40.7269441,33.03314 40.7469659,33.0580645 C40.8163658,33.1550885 40.8469298,33.2743517 40.8326935,33.3925806 C40.8314693,33.8429008 40.5466884,34.2441816 40.1204954,34.396129 C39.7239837,34.5858671 39.3166284,34.7523176 38.9005263,34.8946237 C38.8129161,35.0111681 38.7419049,35.1391871 38.6895046,35.2750538 C38.6103715,35.471828 38.5114551,35.5636559 38.3993498,35.5636559 C38.0500595,35.5523689 37.7029812,35.5039939 37.3640248,35.4193548 C37.250815,35.2663034 37.1639084,35.0956367 37.1068421,34.9143011 C36.902074,34.9204261 36.698612,34.9490223 36.5001548,34.9995699 L35.8077399,35.1701075 C35.6904816,35.1961273 35.5688992,35.1961273 35.4516409,35.1701075 L35.4318576,35.1701075 Z M39.0719814,32.4152688 C39.0981267,32.1691318 39.2613435,31.9585928 39.4940248,31.8708602 C39.7044597,31.7900176 39.9278872,31.7477935 40.1534675,31.7462366 C40.1534675,31.9102151 39.9952012,32.0807527 39.6918576,32.2447312 C39.5221947,32.3531672 39.3379089,32.4370875 39.1445201,32.4939785 L39.0719814,32.4152688 Z M41.6767802,30.3688172 C41.9133237,30.4983478 42.0465747,30.7582262 42.013096,31.0247312 C42.0265542,31.1169091 41.9954783,31.2099972 41.9292606,31.2758606 C41.863043,31.3417239 41.769454,31.3726335 41.6767802,31.3592473 C41.5053251,31.3592473 41.3668421,31.1624731 41.2547368,30.7754839 C40.8590712,30.6639785 40.6414551,30.4803226 40.5952941,30.2310753 C40.5491331,29.981828 40.5952941,29.8309677 40.6810217,29.7719355 C40.7897254,29.7218234 40.9021666,29.6801577 41.0173375,29.6473118 C41.1294427,29.6473118 41.1558204,29.7456989 41.103065,30.0211828 L41.6767802,30.3688172 Z M49.7879257,16.3453763 C49.8545867,16.3485649 49.9168196,16.3795148 49.9593808,16.4306452 C50.1672304,16.4246537 50.3719735,16.481858 50.5462848,16.5946237 C50.9367459,16.9677847 51.2779889,17.3887499 51.5618266,17.8474194 C51.6211765,17.8474194 51.6871207,17.9326882 51.7728483,18.1032258 C51.8585759,18.2737634 51.9574923,18.3524731 52.0695975,18.3524731 C52.2220992,18.3342212 52.3697639,18.2874884 52.5048297,18.2147312 C52.5048297,18.1360215 52.5048297,18.063871 52.5575851,17.9851613 C53.5881894,20.2298518 54.1619378,22.6552343 54.2457585,25.1215054 L50.6847678,25.1215054 C50.6810784,25.0997956 50.6810784,25.0776238 50.6847678,25.055914 C50.7048529,24.7333562 50.6364743,24.4114295 50.486935,24.1245161 C50.3033624,23.7399981 50.2613525,23.3035767 50.3682353,22.8913978 C50.4475616,22.6659955 50.4635223,22.4233307 50.4143963,22.1895699 C50.3058541,22.1933222 50.2015715,22.232507 50.1176471,22.3010753 C50.0258798,22.4136003 49.9524467,22.5397606 49.900031,22.6749462 C49.8208978,22.8717204 49.7483591,23.0225806 49.6956037,23.134086 L49.6956037,23.18 C49.6668285,23.2293951 49.6446598,23.2823154 49.6296594,23.3374194 C49.6135396,23.4117997 49.5845311,23.482823 49.5439319,23.5473118 C49.484582,23.7703226 49.4318266,23.9933333 49.3724768,24.2032258 C49.3301384,24.419836 49.3301384,24.6425296 49.3724768,24.8591398 L49.3724768,25.1149462 L47.5524149,25.1149462 C47.6607058,25.0011751 47.7938168,24.9136574 47.9414861,24.8591398 L47.8821362,24.8591398 L48.3701238,24.6164516 C48.2696258,24.5740858 48.2045963,24.4757698 48.2052632,24.3672043 C48.2052632,24.2032258 48.2052632,24.1048387 48.2909907,24.0786022 C48.3767183,24.0523656 48.5020124,23.9802151 48.7789783,23.8752688 C48.9615397,23.6353285 49.1122545,23.372989 49.2273994,23.0947312 C49.5443663,22.5848276 49.7676558,22.0229283 49.8868421,21.4352688 C49.8868421,21.304086 49.715387,21.1401075 49.6956037,21.0023656 C49.6996978,20.8812993 49.7129238,20.7607095 49.7351703,20.6416129 C49.7351703,20.0578495 50.0055418,19.0411828 49.2471827,18.8575269 C49.1878328,18.8575269 49.1614551,18.7722581 49.1614551,18.6082796 C49.3552211,18.44954 49.424404,18.1848758 49.3329102,17.9523656 L48.7987616,17.9523656 C48.818595,17.8461298 48.8613408,17.7454314 48.9240557,17.6572043 C49.0016151,17.5469475 49.0472374,17.4176196 49.0559443,17.2833333 C49.0586448,17.2169092 49.0314114,17.1527499 48.9816692,17.1083484 C48.931927,17.0639468 48.8648628,17.0439329 48.7987616,17.0537634 C48.6510597,17.0473883 48.5039989,17.0766431 48.3701238,17.1390323 C48.2892698,17.1857334 48.1993556,17.2147991 48.1063467,17.2243011 C48.0626935,17.2316403 48.0181114,17.2316403 47.9744582,17.2243011 L47.8623529,17.0537634 C47.84116,16.7371026 47.7052733,16.4388195 47.4798762,16.2141935 C47.3033129,16.004307 47.0765554,15.8419152 46.8204334,15.7419355 L46.8204334,15.7419355 C46.860126,15.6271715 46.860126,15.502506 46.8204334,15.3877419 L47.4798762,14.6268817 L48.5020124,14.9941935 C48.4820494,15.2211401 48.5819076,15.4421358 48.7657895,15.577957 C48.8783468,15.6693988 48.9973517,15.7526949 49.1218885,15.8272043 C49.2626313,15.9186841 49.3970219,16.0194855 49.5241486,16.1289247 L49.5241486,16.1748387 C49.6494427,16.2929032 49.7351703,16.3453763 49.7879257,16.3453763 Z M46.3258514,40.6666667 C46.2701359,40.6108231 46.1939148,40.580024 46.1148297,40.5813978 C46.0291022,40.5813978 45.9895356,40.5289247 45.9895356,40.4174194 C45.9895356,40.305914 46.0752632,40.1944086 46.2467183,40.0829032 C46.4414454,39.9332449 46.5881052,39.7303875 46.6687616,39.4991398 C46.7575544,39.3327666 46.8092843,39.1493251 46.8204334,38.9612903 C46.8310673,38.8708504 46.7757708,38.7855995 46.6885449,38.757957 C46.576146,38.7090762 46.4751166,38.6376175 46.3917957,38.5480645 C46.2699608,38.4858736 46.1444348,38.431113 46.0159133,38.384086 C45.8542518,38.3135382 45.6996885,38.2278852 45.5543034,38.1282796 C45.3984066,38.0450701 45.3000016,37.8844491 45.2971207,37.7084946 C45.3247665,37.566902 45.366745,37.4284549 45.4224149,37.2952688 C45.4224149,37.2231183 45.4817647,37.1444086 45.5147368,37.0722581 L45.7059752,36.9082796 L47.6447368,38.8366667 C47.6447368,39.0596774 47.7832198,39.1843011 48.0404025,39.2302151 L48.2514241,39.4401075 C47.5730387,40.0707513 46.8477923,40.6495978 46.0818576,41.1717204 C46.1168858,41.09156 46.1660151,41.0182605 46.226935,40.9552688 C46.2561293,40.928235 46.2895342,40.9060842 46.3258514,40.8896774 C46.3474698,40.8168955 46.3474698,40.7394486 46.3258514,40.6666667 Z M45.1586378,31.483871 C44.9832047,31.4308129 44.792922,31.462357 44.6442724,31.5691398 C44.4024215,31.6374218 44.2114906,31.8223983 44.1365015,32.0610753 C44.1365015,32.1135484 44.1035294,32.1397849 44.050774,32.1397849 C43.9337062,32.1431039 43.8188385,32.1722272 43.7144582,32.2250538 C43.5697289,32.2714356 43.4286603,32.3284381 43.2924149,32.3955914 C43.1275542,32.3955914 43.0418266,32.3365591 43.0418266,32.2250538 C43.0418266,32.1135484 43.2924149,31.9495699 43.8001858,31.8905376 C44.0156037,31.6194265 44.1540867,31.455448 44.2156347,31.3986022 C44.3314078,31.315767 44.4643439,31.2597396 44.6047059,31.2346237 C44.8725889,31.0896745 45.0993962,30.8798725 45.2641486,30.6246237 C45.3963256,30.4646494 45.5030754,30.2854731 45.5806811,30.0933333 L45.6598142,30.0933333 C45.6598142,30.3622581 45.7785139,30.5 46.0093189,30.5 C46.2401238,30.5 46.3324458,30.3097849 46.4511455,29.9227957 C46.6786144,30.0075986 46.91552,30.0648564 47.1567492,30.0933333 C47.4058661,30.1103314 47.6432682,29.985918 47.770031,29.7719355 L48.7987616,29.7719355 C48.7959273,29.7980963 48.7959273,29.8244843 48.7987616,29.8506452 L48.7987616,29.9162366 L48.7987616,29.9162366 C48.2175411,31.7579251 47.2587582,33.459759 45.9829412,34.9143011 C45.9829412,34.8290323 45.9829412,34.7437634 45.9829412,34.6584946 C45.9829412,34.6584946 45.7323529,33.8976344 45.6795975,33.8976344 C45.6268421,33.8976344 45.4356037,34.0944086 45.2773375,34.4813978 C45.1190712,34.8683871 45.0135604,35.1373118 44.960805,35.2291398 L44.1167183,35.3996774 C43.8703519,35.457285 43.6180343,35.4859041 43.3649536,35.4849695 C43.1113797,35.4307861 42.8699712,35.3307375 42.6527554,35.1897849 C42.4315792,35.0532786 42.1884327,34.955653 41.9339628,34.9011828 C41.7009221,34.8276375 41.4629239,34.7706482 41.2217647,34.7306452 C40.9118266,34.678172 40.7601548,34.5929032 40.7601548,34.4813978 C40.7601548,34.3698925 40.8722601,34.2321505 41.0964706,34.2321505 C41.319901,34.2518013 41.5408066,34.2935488 41.7559133,34.3567742 L42.7648607,34.6060215 L43.6880805,34.8552688 C43.8508034,34.9124732 44.0186133,34.9542012 44.189257,34.9798925 L44.6970279,34.815914 C44.7137277,34.6518327 44.7703081,34.4942555 44.8618885,34.3567742 C44.957556,34.2208197 45.0165866,34.0627416 45.0333437,33.8976344 C45.1763924,33.6062611 45.2805856,33.2975593 45.3432817,32.9793548 C45.4277767,32.6511878 45.4742399,32.3144815 45.4817647,31.9758065 C45.4158204,31.6675269 45.3234985,31.483871 45.1586378,31.483871 Z M47.3875542,26.4202151 L49.3658824,26.4202151 C49.3272322,27.2415119 49.2169102,28.0579154 49.036161,28.8602151 C48.9334553,28.5902147 48.7888193,28.3379029 48.6075232,28.1124731 L47.9480805,27.4565591 C47.8887307,27.1810753 47.8491641,26.9843011 47.816192,26.8727957 C47.7897648,26.8016073 47.7519049,26.7351532 47.7040867,26.6760215 C47.5839292,26.5970329 47.4770969,26.4996273 47.3875542,26.3874194 L47.3875542,26.4202151 Z M48.2052632,36.6065591 C48.033808,36.6065591 47.9546749,36.6524731 47.9546749,36.7311828 C47.938339,36.9052769 47.9119174,37.0782884 47.8755418,37.2493548 L46.6226006,36.0096774 C48.3281911,34.1712164 49.5473741,31.9397435 50.1704025,29.516129 L50.2297523,29.4636559 C50.5111146,29.5686022 50.6957585,29.5686022 50.7836842,29.4636559 C50.8484216,29.3941101 50.8918848,29.3076489 50.9089783,29.2144086 C50.8522044,28.9540398 50.7051332,28.7218426 50.4935294,28.5584946 L50.3880186,28.5584946 C50.5221373,27.8414694 50.6058694,27.1160213 50.6386068,26.3874194 L54.2457585,26.3874194 C54.0934686,30.9164705 52.2911892,35.2360454 49.174644,38.5415054 L49.0163777,38.3906452 L49.0163777,38.3578495 C48.9636223,37.9708602 48.9042724,37.5969892 48.8317337,37.2296774 C48.759195,36.8623656 48.5415789,36.6065591 48.2052632,36.6065591 Z M47.3150155,18.4967742 C47.3097564,18.6404293 47.2807945,18.7822478 47.2292879,18.9165591 C47.1816327,19.0592157 47.1266059,19.1993304 47.0644272,19.3363441 C47.248577,19.5674648 47.4717117,19.764992 47.72387,19.9201075 C47.9904565,20.0962817 48.2439022,20.291377 48.4822291,20.503871 C48.6485286,20.8079276 48.7748572,21.131979 48.8581115,21.4680645 C48.9586646,21.7552849 49.0293741,22.0519947 49.0691331,22.3535484 C49.0180357,22.5624367 48.9334211,22.7617673 48.8185449,22.943871 C48.6476644,23.2465791 48.3299146,23.4381996 47.9810526,23.4489247 L47.8953251,23.3636559 C47.9135866,23.1896885 47.9698529,23.0217927 48.0601858,22.8717204 C48.1506418,22.7187981 48.2089697,22.5492136 48.2316409,22.3732258 C48.4163612,22.2721486 48.5413573,22.0893144 48.5679567,21.8812903 L48.310774,21.7566667 C48.1605427,21.6456008 48.0214172,21.520399 47.8953251,21.3827957 C47.8953251,21.2188172 47.72387,21.1401075 47.3941486,21.1401075 C47.2432683,21.1323345 47.0942799,21.1763288 46.9721053,21.2647312 C46.8364612,21.3680235 46.6955962,21.4643499 46.5500619,21.5533333 L46.3852012,21.2188172 C46.4391692,21.1106333 46.4684425,20.9919267 46.4709288,20.8711828 L45.8114861,19.7495699 C45.5242732,19.5975624 45.2112666,19.4997152 44.8882663,19.4609677 C44.6710888,19.4130758 44.446001,19.4130758 44.2288235,19.4609677 C44.0091695,19.4968714 43.7843386,19.48569 43.5693808,19.428172 C43.308435,19.4012489 43.0491991,19.4928213 42.8637771,19.6774194 C42.655378,19.8333074 42.4690564,20.0164257 42.3098452,20.221828 C42.2241176,20.3202151 42.3098452,20.457957 42.0922291,20.4054839 C42.0125036,20.3405205 41.9415731,20.26556 41.8812074,20.1824731 L45.7191641,16.3978495 C45.7461644,16.4420298 45.77706,16.4837352 45.8114861,16.5224731 L46.1478019,16.8963441 C46.2665015,17.034086 46.3852012,17.1849462 46.5039009,17.3423656 C46.7934431,17.7134846 47.0641525,18.0987683 47.3150155,18.4967742 L47.3150155,18.4967742 Z M38.1619505,43.5526882 C38.4794411,43.8062352 38.8450004,43.9936134 39.2368421,44.1036559 C38.1879961,44.3206207 37.1224043,44.4478952 36.0517337,44.484086 L36.0517337,40.8962366 L36.0517337,40.8962366 C36.1935226,41.1152364 36.3745814,41.306443 36.5858824,41.4603226 C36.8237525,41.5410285 37.0731367,41.5831083 37.3244582,41.5849462 C37.7003406,41.6177419 37.8915789,41.6833333 37.8915789,41.7948387 C37.8823645,41.928014 37.8392483,42.0566704 37.7662848,42.1687097 C37.6893679,42.2817352 37.6438671,42.4129814 37.6343963,42.5491398 C37.6416282,42.9476038 37.8370866,43.3194175 38.1619505,43.5526882 L38.1619505,43.5526882 Z M36.0517337,49.5674194 L36.0517337,45.75 C37.4594192,45.7058206 38.8585339,45.5145542 40.2260062,45.1793548 C40.228607,45.2055276 40.228607,45.2318917 40.2260062,45.2580645 C40.2323089,45.2927657 40.2323089,45.3283095 40.2260062,45.3630108 C40.5552382,45.5698115 40.8399071,45.8395802 41.0634985,46.1566667 C41.1756037,46.3796774 41.4855418,46.4911828 41.9867183,46.4911828 C42.2702786,46.4911828 42.4483282,46.4387097 42.5340557,46.3272043 C42.6235104,46.2077356 42.7227666,46.0958472 42.830805,45.9926882 C42.9474098,45.8764525 43.0896594,45.7888644 43.2462539,45.7368817 C43.388869,45.705097 43.5111565,45.6144684 43.5825697,45.4876344 C43.8356427,45.4003109 44.0471293,45.2226778 44.1760681,44.9891398 C44.4003416,44.8202552 44.5736997,44.5933731 44.6772446,44.3332258 C44.8148618,44.3206168 44.938946,44.2455967 45.0135604,44.1298925 C45.1779714,43.859456 45.2919066,43.5616987 45.3498762,43.2509677 L45.4949536,43.1656989 C45.4917748,43.1242179 45.4917748,43.0825563 45.4949536,43.0410753 C46.7980186,42.2780593 48.0121885,41.3739546 49.1152941,40.3452688 L51.8256037,43.0476344 C47.5561092,47.0816657 41.9381987,49.4037064 36.0517337,49.5674194 L36.0517337,49.5674194 Z M52.7883901,42.135914 L50.0714861,39.4401075 C53.4304895,35.8979234 55.3682829,31.2543716 55.518483,26.3874194 L59.3498452,26.3874194 C59.1961393,32.2634027 56.8584462,37.8742233 52.7883901,42.135914 L52.7883901,42.135914 Z M59.3498452,25.1215054 L55.518483,25.1215054 C55.3909842,21.0998701 54.0388374,17.2115212 51.6409598,13.9709677 C51.6007552,13.8437348 51.5357749,13.7256133 51.4497214,13.6233333 C51.3850359,13.5515562 51.3119822,13.4877011 51.2321053,13.4331183 C50.9221672,13.0330108 50.5726625,12.6525806 50.2495356,12.2787097 C50.2030632,12.1938714 50.1676094,12.1035072 50.1440248,12.0097849 L52.7817957,9.38612903 C56.8501866,13.6441819 59.1898695,19.2494671 59.3498452,25.1215054 Z M36.0517337,1.96774194 C41.9625421,2.12615535 47.6032226,4.46386225 51.8783591,8.52688172 L49.5439319,10.8488172 C49.4874006,10.7357666 49.4431864,10.617027 49.4120433,10.4946237 C49.2273994,10.3306452 49.1086997,10.2322581 49.0625387,10.2322581 C48.8491179,10.135429 48.7034769,9.93312227 48.6800619,9.70096774 C48.6721097,9.50326999 48.5978182,9.31391685 48.4690402,9.16311828 C48.1043259,9.03335536 47.8026735,8.77082192 47.6249536,8.42849462 C47.400743,8.04806452 47.1765325,7.85129032 46.9655108,7.85129032 C46.7825552,7.90614082 46.5850564,7.88483989 46.4181734,7.79225806 C46.2450579,7.7130579 46.0602437,7.66211839 45.8708359,7.64139785 C45.6697963,7.63965997 45.469665,7.66841314 45.2773375,7.72666667 C45.061074,7.79459164 44.8408521,7.84935252 44.6178947,7.89064516 L44.5321672,7.97591398 C41.9905493,6.66470311 39.1949349,5.91305389 36.3352941,5.77204301 C36.5529102,5.4244086 36.5858824,5.19483871 36.4144272,5.11612903 C36.3682663,5.07021505 36.2429721,5.11612903 36.0517337,5.31946237 L36.0517337,1.96774194 Z M36.0517337,7.04451613 C38.7685781,7.1332361 41.4341242,7.80444686 43.86613,9.01225806 C43.8630415,9.03181559 43.8630415,9.0517328 43.86613,9.07129032 C43.9650464,9.16967742 44.0771517,9.29430108 44.2024458,9.43860215 C44.3277399,9.58290323 44.4398452,9.71408602 44.4926006,9.76655914 C44.5548322,10.0143814 44.634153,10.2576454 44.73,10.4946237 C44.8058361,10.6382183 44.8917777,10.776304 44.9871827,10.9078495 C44.9298869,11.1489689 44.9752235,11.4029193 45.1124768,11.6096774 C45.2485407,11.8547394 45.402841,12.0893364 45.5740867,12.3115054 L45.9104025,12.2721505 C46.0470505,12.2434178 46.1861951,12.22804 46.3258514,12.2262366 C46.4834797,12.2506618 46.6228681,12.3414966 46.7083282,12.4754839 C46.8365292,12.6238996 46.9350159,12.795329 46.998483,12.9805376 C47.0357911,13.06844 47.0602198,13.1612141 47.0710217,13.2560215 L46.042291,14.2792473 L46.042291,14.2792473 C45.93705,13.7980348 45.7685419,13.3327065 45.5411146,12.8952688 C45.366045,12.7267745 45.1231806,12.6470581 44.8816718,12.6788172 C44.822322,12.6263441 44.6310836,12.3836559 44.2947678,11.963871 C43.958452,11.544086 43.7672136,11.307957 43.7078638,11.307957 C43.6160242,11.3002967 43.525153,11.3312178 43.4572755,11.3932258 C43.5086498,11.4948231 43.5658974,11.5933752 43.6287307,11.6883871 L43.9650464,12.2393548 C43.9717375,12.2863114 43.9558392,12.3336642 43.9221236,12.3671993 C43.8884081,12.4007345 43.8408005,12.4165477 43.7935913,12.4098925 C43.8399721,12.6196885 44.00471,12.7835448 44.2156347,12.8296774 L44.1299071,12.9936559 L44.3739009,13.4855914 C41.9497203,11.7207681 39.0532317,10.711737 36.0517337,10.5864516 L36.0517337,7.04451613 Z M36.0517337,11.9048387 C39.3155525,12.0379541 42.4278715,13.3105904 44.8421053,15.4992473 L42.2636842,18.063871 C40.5458615,16.5455445 38.3653328,15.6447398 36.071517,15.5058065 L36.0517337,11.9048387 Z M36.0517337,16.8045161 C37.8808275,16.9374441 39.6251739,17.6241244 41.0503096,18.7722581 C40.9874943,18.7941425 40.9293444,18.827511 40.8788545,18.8706452 C40.8283601,18.9187959 40.770485,18.9586489 40.7073994,18.9887097 C40.654644,19.0149462 40.6282663,19.0805376 40.6282663,19.1854839 C40.6282663,19.3232258 40.8129102,19.3756989 40.9447988,19.3953763 L39.9556347,20.3333333 L39.9556347,20.3333333 C39.8186038,20.4028448 39.6920727,20.4911634 39.5797523,20.5956989 C39.3489474,20.7072043 39.2236533,20.8055914 39.1906811,20.8908602 C39.157709,20.976129 39.1445201,21.0482796 39.111548,21.1794624 L38.7818266,21.5074194 C38.7337104,21.5142368 38.6848655,21.5142368 38.6367492,21.5074194 C38.524644,21.5074194 38.3531889,21.395914 38.1223839,21.1663441 C37.8915789,20.9367742 37.7201238,20.831828 37.6080186,20.831828 C37.4687104,20.8191933 37.3303326,20.8642814 37.2255418,20.9564516 C37.146782,21.0356292 37.0231054,21.0492975 36.9287926,20.9892473 C36.8166873,20.8777419 36.9287926,20.7531183 37.3112693,20.6088172 C37.6937461,20.4645161 37.9311455,20.366129 38.0432508,20.3136559 C38.4722104,20.0007585 38.7188323,19.497889 38.7026935,18.9690323 C38.7026935,18.6869892 38.5905882,18.5426882 38.3597833,18.5426882 L38.1026006,18.7853763 C37.8811236,18.8837851 37.6781741,19.0191002 37.5025077,19.1854839 L37.07387,19.5921505 C36.9112664,19.5248395 36.7352668,19.4956632 36.5595046,19.5068817 L36.0583282,19.5068817 L36.0517337,16.8045161 Z M35.3065635,22.5503226 C35.34613,22.6355914 35.3988854,22.6815054 35.4582353,22.6815054 C35.6054211,22.6786149 35.7493469,22.7247941 35.8670898,22.8126882 C35.994675,22.8936541 36.1522116,22.9129394 36.2957276,22.8651613 C36.3124148,22.9261696 36.3468224,22.9809272 36.394644,23.0225806 C36.4514538,23.1458906 36.5826209,23.2177796 36.7177709,23.1996774 L36.8166873,23.3046237 C36.83777,23.3331095 36.8554725,23.3639232 36.8694427,23.3964516 C36.9097526,23.4974512 36.9559933,23.5960081 37.0079257,23.6916129 L37.0408978,23.6916129 L37.0408978,23.7637634 C37.1221743,23.8121213 37.2194698,23.8262834 37.3112693,23.8031183 C37.3795393,23.7791104 37.4540211,23.7791104 37.522291,23.8031183 C37.522291,23.8621505 37.522291,23.9211828 37.522291,23.9867742 L37.5750464,23.9867742 C37.5692003,24.0544273 37.5692003,24.1224545 37.5750464,24.1901075 C37.5999278,24.3132313 37.6131744,24.4384003 37.614613,24.5639785 L37.614613,24.727957 C37.6166512,24.751134 37.6082761,24.7740205 37.5917364,24.7904717 C37.5751967,24.8069229 37.5521871,24.8152531 37.5288854,24.8132258 C37.3733407,24.9321925 37.275228,25.1107066 37.2585139,25.3051613 C37.2585139,25.4166667 37.3310526,25.4560215 37.4827245,25.4297849 C37.6046722,25.3889822 37.738424,25.4416424 37.799257,25.5544086 C37.9245884,25.6867553 37.9890684,25.8649079 37.9773065,26.0463441 L37.9773065,26.794086 C37.9706296,26.8936025 38.0185531,26.9889364 38.1026006,27.0433333 C38.1883282,27.0958065 38.2278947,27.1482796 38.2278947,27.2073118 C38.2229989,27.4154066 38.1942369,27.6222654 38.1421672,27.823871 C38.1119795,28.0232743 38.0250236,28.2099118 37.8915789,28.3617204 C37.830031,28.4141935 37.6849536,28.4141935 37.4563467,28.3617204 C37.2578895,28.3111728 37.0544275,28.2825766 36.8496594,28.2764516 C36.7375542,28.2764516 36.6188545,28.4469892 36.5067492,28.7749462 C36.4005728,29.0196939 36.3124151,29.2717912 36.2429721,29.5292473 C36.1902167,29.7522581 36.071517,29.8637634 35.9000619,29.8637634 C35.784605,29.8635071 35.669516,29.8767155 35.5571517,29.9031183 L35.6099071,29.9031183 L35.3263467,30.3556989 L35.2340248,30.4737634 C34.2813656,30.416841 33.3796767,30.0264961 32.6885759,29.371828 L33.1304025,28.9323656 C33.4060273,28.8936281 33.6775241,28.8299592 33.941517,28.7421505 L34.0865944,28.6831183 C34.5350155,28.4863441 34.4954489,28.1255914 34.7460372,27.7386022 C34.8911146,27.4827957 35.3131579,27.1941935 34.9768421,26.9055914 C35.3527245,26.2496774 33.6052012,26.2496774 33.2952632,26.3874194 C32.9853251,26.5251613 33.1633746,26.9449462 32.9721362,27.2335484 C32.8732198,27.3844086 32.7083591,27.3844086 32.5764706,27.4893548 C32.2874758,27.718714 32.0607764,28.0163559 31.9170279,28.3551613 L31.9170279,28.3551613 C31.8042359,28.1447938 31.7093832,27.9253867 31.6334675,27.6992473 L31.6994118,27.6992473 C31.6664396,27.6336559 31.6532508,27.5811828 31.6994118,27.5615054 L31.7851393,27.5615054 L31.7851393,27.6467742 C32.0027554,27.6992473 32.1478328,27.6992473 32.2005882,27.6467742 C32.2544082,27.4950007 32.2962988,27.3392998 32.3258824,27.1810753 C32.4472096,26.8410572 32.6018219,26.513715 32.7874923,26.2037634 C32.6872422,26.1512186 32.6150048,26.0578125 32.5896594,25.947957 C32.5896594,25.8364516 32.4973375,25.8102151 32.3918266,25.8626882 C32.2940143,25.9106014 32.2324844,26.0100526 32.2335604,26.1184946 C32.2265392,26.2462263 32.1697705,26.3662142 32.0752941,26.4530108 C31.9935663,26.5514891 31.873816,26.6110438 31.7455728,26.6169892 C31.7542754,26.5485954 31.7306873,26.4800429 31.6816774,26.4312953 C31.6326676,26.3825478 31.5637464,26.3590858 31.4949845,26.3677419 C31.3644178,26.3774103 31.2432337,26.4388598 31.1586687,26.5382796 C31.0465635,26.5382796 30.7827864,26.5382796 30.360743,26.6169892 C30.098715,26.6814453 29.8248454,26.6814453 29.5628173,26.6169892 C29.4507121,26.512043 29.5628173,26.3939785 29.9848607,26.2824731 C29.9499835,25.9310348 30.0787502,25.5830501 30.3343653,25.337957 C30.4901042,25.4287695 30.6629287,25.4868136 30.8421362,25.5084946 L31.0069969,25.337957 L31.0927245,25.337957 C31.2575851,25.337957 31.3565015,25.4822581 31.3828793,25.7643011 C31.409257,26.0463441 31.4817957,26.184086 31.5939009,26.184086 C31.7248844,26.1759156 31.8466257,26.1141836 31.9302167,26.0135484 L31.9302167,25.5806452 C32.042322,25.1280645 32.1280495,24.8197849 32.180805,24.6492473 L32.180805,24.4 C32.2435974,24.2478917 32.3328933,24.1080033 32.444582,23.9867742 L32.5434985,23.9867742 C32.6549151,23.8941688 32.7892807,23.8330085 32.9325697,23.8096774 C33.023288,23.6502943 33.0794466,23.4737826 33.0974303,23.2915054 C33.2688854,23.2390323 33.5590402,23.1209677 33.9810836,22.9504301 C34.4031269,22.7798925 34.6405263,22.6093548 34.6405263,22.4388172 L34.6405263,22.3929032 C34.8274621,22.3533872 35.0169762,22.3270849 35.2076471,22.3141935 C35.2169773,22.3929435 35.2516781,22.4665758 35.3065635,22.524086 L35.3065635,22.5503226 Z M34.7724149,1.96774194 L34.7724149,5.75236559 C29.883465,5.90362269 25.2177354,7.8228929 21.6495046,11.1505376 L18.939195,8.45473118 C23.2270398,4.41655886 28.8690817,2.10497186 34.7724149,1.96774194 L34.7724149,1.96774194 Z M18.0423529,9.36645161 L20.7526625,12.0622581 C17.3963432,15.6088019 15.4591239,20.2533108 15.3056656,25.1215054 L11.467709,25.1215054 C11.6227499,19.2413447 13.9654415,13.6274693 18.0423529,9.36645161 L18.0423529,9.36645161 Z" id="Shape" fill="#00A1D9" fill-rule="nonzero"></path>
                                <path d="M110.126935,10.606129 L110.278607,12.6984946 C111.529529,11.1065235 113.471281,10.2066847 115.501393,10.278172 C117.426966,10.278172 118.857957,10.8356989 119.80096,11.963871 C120.743963,13.092043 121.218762,14.7711828 121.245139,17.0078495 L121.245139,28.6831183 L116.391641,28.6831183 L116.391641,17.125914 C116.469307,16.3257636 116.23303,15.5267209 115.732198,14.8958065 C115.112501,14.3723799 114.305784,14.121482 113.496687,14.2005376 C112.222586,14.1482836 111.029952,14.8228693 110.423684,15.9387097 L110.423684,28.6831183 L105.570186,28.6831183 L105.570186,10.606129 L110.126935,10.606129 Z" id="Path" fill="#000000" fill-rule="nonzero"></path>
                                <path d="M125.742539,5.90322581 C125.721219,5.23220818 125.987279,4.58373043 126.47452,4.11913978 C127.628281,3.19079435 129.277416,3.19079435 130.431176,4.11913978 C130.92784,4.57877782 131.201707,5.22871821 131.182941,5.90322581 C131.208293,6.5833386 130.93656,7.24109805 130.437771,7.70698925 C129.289499,8.65063817 127.629386,8.65063817 126.481115,7.70698925 C125.985483,7.2394278 125.716359,6.58216947 125.742539,5.90322581 L125.742539,5.90322581 Z M130.899381,28.6568817 L126.032693,28.6568817 L126.032693,10.606129 L130.899381,10.606129 L130.899381,28.6568817 Z" id="Shape" fill="#000000" fill-rule="nonzero"></path>
                                <path d="M140.92291,6.1655914 L140.92291,10.606129 L144.028885,10.606129 L144.028885,14.1480645 L140.92291,14.1480645 L140.92291,23.1668817 C140.876122,23.6776318 141.011522,24.1884704 141.305387,24.6098925 C141.718781,24.9467053 142.251581,25.102851 142.782539,25.0427957 C143.262194,25.0479242 143.741279,25.008397 144.213529,24.9247312 L144.213529,28.5847312 C143.260158,28.8732715 142.268943,29.0191687 141.272415,29.0176464 C137.86969,29.0176464 136.135356,27.3078853 136.069412,23.8883871 L136.069412,14.1480645 L133.431641,14.1480645 L133.431641,10.606129 L136.069412,10.606129 L136.069412,6.1655914 L140.92291,6.1655914 Z" id="Path" fill="#000000" fill-rule="nonzero"></path>
                                <path d="M117.822632,57.7663441 C117.574986,57.2553242 117.410283,56.7085132 117.334644,56.1462366 C116.168928,57.4553668 114.475578,58.1772048 112.718545,58.1139785 C111.10151,58.1698523 109.522331,57.6197461 108.293684,56.5725806 C107.147991,55.61147 106.500775,54.1865354 106.532972,52.696129 C106.447054,50.9599231 107.25447,49.2993683 108.676161,48.2883871 C110.107152,47.2651613 112.164613,46.7469892 114.868328,46.733871 L117.097245,46.733871 L117.097245,45.6844086 C117.13276,44.9595235 116.897928,44.2471201 116.437802,43.683871 C115.908246,43.1388191 115.159092,42.8614998 114.400124,42.9295699 C113.709004,42.8911038 113.026606,43.0979821 112.474551,43.5133333 C112.016262,43.9184204 111.772697,44.5119616 111.815108,45.1203226 L106.96161,45.1203226 C106.961603,44.0731789 107.301604,43.0540343 107.930991,42.2146237 C108.639676,41.2775459 109.593039,40.5516043 110.687461,40.1156989 C111.957644,39.592316 113.322179,39.33337 114.696873,39.3548387 C116.616419,39.2570866 118.506691,39.8535182 120.018576,41.0339785 C121.365209,42.2274003 122.093166,43.9651479 121.996904,45.7565591 L121.996904,53.588172 C121.929678,54.9226167 122.175773,56.254301 122.715697,57.4777419 L122.715697,57.7663441 L117.822632,57.7663441 Z M113.806625,54.4408602 C114.495821,54.447216 115.175747,54.2826527 115.784954,53.962043 C116.348812,53.6688028 116.809021,53.2110563 117.103839,52.6502151 L117.103839,49.5477419 L115.290372,49.5477419 C112.863622,49.5477419 111.571115,50.3829391 111.412848,52.0533333 L111.412848,52.3353763 C111.406425,52.9030667 111.646824,53.4458528 112.072291,53.8243011 C112.550414,54.2419243 113.170683,54.462431 113.806625,54.4408602 L113.806625,54.4408602 Z" id="Shape" fill="#000000" fill-rule="nonzero"></path>
                                <path d="M130.714737,35.2488172 L130.714737,39.6893548 L133.820712,39.6893548 L133.820712,43.2312903 L130.714737,43.2312903 L130.714737,52.2501075 C130.668566,52.7597091 130.806509,53.2689951 131.103808,53.6865591 C131.514607,54.0282227 132.049538,54.1849929 132.58096,54.1194624 C133.058206,54.1262715 133.535056,54.0889425 134.005356,54.007957 L134.005356,57.6613978 C133.054545,57.9519926 132.065521,58.100105 131.070836,58.1008602 C127.663715,58.1008602 125.927183,56.3911111 125.861238,52.9716129 L125.861238,43.2312903 L123.223467,43.2312903 L123.223467,39.6893548 L125.861238,39.6893548 L125.861238,35.2488172 L130.714737,35.2488172 Z" id="Path" fill="#000000" fill-rule="nonzero"></path>
                                <path d="M136.043034,35.0126882 C136.021715,34.3416705 136.287774,33.6931928 136.775015,33.2286022 C137.928776,32.3002567 139.577911,32.3002567 140.731672,33.2286022 C141.719779,34.2226342 141.719779,35.8224196 140.731672,36.8164516 C139.5834,37.7601005 137.923287,37.7601005 136.775015,36.8164516 C136.28181,36.3477233 136.015153,35.6906204 136.043034,35.0126882 L136.043034,35.0126882 Z M141.199876,57.7663441 L136.333189,57.7663441 L136.333189,39.6893548 L141.199876,39.6893548 L141.199876,57.7663441 Z" id="Shape" fill="#000000" fill-rule="nonzero"></path>
                                <path d="M143.995913,48.5376344 C143.963274,46.8826191 144.320074,45.2429318 145.037833,43.7494624 C145.683637,42.3830996 146.726496,41.2407221 148.031703,40.4698925 C149.416734,39.6957529 150.987161,39.3103478 152.575263,39.3548387 C154.799464,39.269294 156.964673,40.0777889 158.582786,41.5980645 C160.19141,43.2214161 161.118084,45.3931913 161.174396,47.671828 L161.207368,48.9115054 C161.207368,51.6838351 160.429226,53.9073835 158.872941,55.5821505 C155.373512,58.9272731 149.842959,58.9272731 146.343529,55.5821505 C144.778452,53.9073835 143.998111,51.6357348 144.002508,48.7672043 L143.995913,48.5376344 Z M148.849412,48.8852688 C148.76011,50.264849 149.098459,51.6384717 149.818793,52.8207527 C150.48177,53.6759163 151.506054,54.1768277 152.591749,54.1768277 C153.677444,54.1768277 154.701728,53.6759163 155.364706,52.8207527 C156.024149,51.9199642 156.35387,50.4835125 156.35387,48.5113978 C156.441139,47.1294004 156.095559,45.7544755 155.364706,44.575914 C154.736565,43.6675559 153.682655,43.1446598 152.575263,43.1919355 C151.479011,43.1471001 150.437021,43.6677865 149.818793,44.5693548 C149.172539,45.5466667 148.849412,46.9765591 148.849412,48.9049462 L148.849412,48.8852688 Z" id="Shape" fill="#000000" fill-rule="nonzero"></path>
                                <path d="M167.973251,39.6893548 L168.124923,41.7751613 C169.375845,40.1831901 171.317597,39.2833514 173.347709,39.3548387 C175.273282,39.3548387 176.710867,39.9189247 177.647276,41.0405376 C178.583684,42.1621505 179.071672,43.8478495 179.091455,46.0910753 L179.091455,57.7663441 L174.237957,57.7663441 L174.237957,46.2025806 C174.313557,45.4026272 174.077502,44.6043346 173.578514,43.9724731 C172.954727,43.45271 172.145787,43.2065936 171.336409,43.2903226 C170.061921,43.2364816 168.8685,43.9115126 168.263406,45.0284946 L168.263406,57.7663441 L163.409907,57.7663441 L163.409907,39.6893548 L167.973251,39.6893548 Z" id="Path" fill="#000000" fill-rule="nonzero"></path>
                                <path d="M192.16161,52.7682796 C192.162346,52.1755983 191.821366,51.6349906 191.284551,51.3777419 C190.393749,50.9322647 189.439734,50.6248088 188.455542,50.4660215 C184.129598,49.5608602 181.968824,47.7330466 181.97322,44.9825806 C181.954441,43.407977 182.6887,41.9181041 183.951548,40.9683871 C185.474414,39.8247658 187.35463,39.2532649 189.260062,39.3548387 C191.235377,39.2574881 193.185596,39.8285565 194.792786,40.9749462 C196.128687,41.9615769 196.900577,43.5313275 196.863437,45.185914 L192.009938,45.185914 C192.030898,44.5502196 191.793142,43.9329962 191.350495,43.4739785 C190.766568,42.9827368 190.008244,42.7462895 189.246873,42.8180645 C188.568527,42.7753199 187.896556,42.9702625 187.347678,43.3690323 C186.920422,43.7095002 186.6767,44.2282748 186.688235,44.7726882 C186.680569,45.3167962 186.974554,45.8209535 187.453189,46.0845161 C188.253481,46.5167347 189.124055,46.8053733 190.025015,46.9372043 C191.063833,47.1324114 192.086598,47.4042739 193.08483,47.7505376 C195.647864,48.6819355 196.929381,50.302043 196.929381,52.6108602 C196.949031,54.2179046 196.146781,55.7248824 194.799381,56.6119355 C193.158811,57.6808644 191.21863,58.2023696 189.260062,58.1008602 C187.86496,58.1248462 186.481247,57.8473467 185.204489,57.2875269 C184.092603,56.8185762 183.127183,56.0621492 182.408452,55.0967742 C181.754805,54.2150837 181.401319,53.1488097 181.399505,52.0533333 L186.015604,52.0533333 C186.017687,52.8195701 186.369431,53.5434222 186.971796,54.0210753 C187.671286,54.4993081 188.511871,54.7302715 189.358978,54.6769892 C190.098508,54.729755 190.835622,54.5458882 191.462601,54.1522581 C191.915625,53.8379434 192.178529,53.3174159 192.16161,52.7682796 Z" id="Path" fill="#000000" fill-rule="nonzero"></path>
                                <path d="M162.592198,19.5134409 C162.592198,16.6930108 163.227461,14.4497849 164.497988,12.7837634 C165.711041,11.1394435 167.665179,10.2007755 169.71418,10.278172 C171.398276,10.2394658 173.008977,10.9632981 174.092879,12.245914 L174.092879,3.02376344 L178.966161,3.02376344 L178.966161,28.6831183 L174.580867,28.6831183 L174.350062,26.7612903 C173.245098,28.2115546 171.510374,29.0499047 169.681207,29.0176344 C167.653768,29.0727467 165.728486,28.1336467 164.53096,26.5054839 C163.238452,24.8263441 162.592198,22.4956631 162.592198,19.5134409 Z M167.445697,19.8741935 C167.363421,21.2307237 167.672277,22.5824179 168.335944,23.7703226 C168.88938,24.6516601 169.877294,25.1680411 170.92096,25.1215054 C172.271289,25.2131211 173.536437,24.4596641 174.092879,23.2324731 L174.092879,16.0895699 C173.551292,14.8649051 172.295911,14.1094115 170.953932,14.2005376 C168.615108,14.2005376 167.445697,16.0917563 167.445697,19.8741935 L167.445697,19.8741935 Z" id="Shape" fill="#000000" fill-rule="nonzero"></path>
                                <path d="M102.279567,4.36182796 L102.279567,20.3792473 C102.279567,23.0422581 101.442074,25.1477419 99.7670898,26.6956989 C98.0921053,28.2436559 95.8060372,29.0176344 92.9088854,29.0176344 C90.0556966,29.0176344 87.7894118,28.2655197 86.110031,26.7612903 C84.4306502,25.2570609 83.5733746,23.1909319 83.5382043,20.5629032 L83.5382043,4.36182796 L88.5763467,4.36182796 L88.5763467,20.412043 C88.5763467,22.0037276 88.9588235,23.1646953 89.7237771,23.8949462 C90.5997457,24.6617983 91.7437811,25.0552384 92.9088854,24.9903226 C95.7444892,24.9903226 97.1842724,23.5101434 97.2282353,20.5497849 L97.2282353,4.36182796 L102.279567,4.36182796 Z" id="Path" fill="#000000" fill-rule="nonzero"></path>
                                <polygon id="Path" fill="#000000" fill-rule="nonzero" points="103.657802 57.7663441 98.6196594 57.7663441 88.8137461 41.762043 88.8137461 57.7663441 83.749226 57.7663441 83.749226 33.4516129 88.7873684 33.4516129 98.6064706 49.4821505 98.6064706 33.4516129 103.631424 33.4516129"></polygon>
                                <path d="M153.847988,29.0176344 C151.489704,29.1237365 149.200543,28.2101018 147.570093,26.512043 C145.98123,24.7808044 145.138346,22.4988259 145.222477,20.1562366 L145.222477,19.5003226 C145.123865,17.0960745 145.914487,14.7392358 147.444799,12.8755914 C148.916746,11.1493896 151.105982,10.1936996 153.379783,10.2847312 C155.824118,10.2847312 157.725511,11.0193548 159.083963,12.4886022 C160.442415,13.9578495 161.119443,15.9452688 161.115068,18.4508602 L161.115068,21.0745161 L150.30678,21.0745161 L150.273808,21.1729032 C150.317812,22.2575841 150.742468,23.292656 151.473994,24.0982796 C152.224531,24.8824743 153.28185,25.3017017 154.368947,25.246129 C155.278875,25.2691207 156.187352,25.1608636 157.066068,24.9247312 C157.88434,24.6629592 158.673258,24.3178685 159.420279,23.8949462 L160.739164,26.9055914 C159.870669,27.579539 158.88486,28.0887048 157.831022,28.4076344 C156.545458,28.8247618 155.20016,29.0307936 153.847988,29.0176344 Z M153.412755,14.03 C152.564429,14.005597 151.75914,14.401173 151.262972,15.0860215 C150.695198,15.8859421 150.357743,16.8248542 150.286997,17.8015054 L150.339752,17.8867742 L156.347276,17.8867742 L156.347276,17.453871 C156.402343,16.5635798 156.148618,15.681451 155.628483,14.9548387 C155.08216,14.3104224 154.257815,13.9663429 153.412755,14.03 L153.412755,14.03 Z" id="Shape" fill="#000000" fill-rule="nonzero"></path>
                            </g>
                            <path d="M212.5,0 L212.5,60" id="Path-2" stroke="#000000"></path>
                        </g>
                    </g>
                </g>
            </g>
        </g>
    </g>
</svg>